<?xml version="1.0" encoding="UTF-8" standalone="no"?>
<!-- Created with Inkscape (http://www.inkscape.org/) -->

<svg
   xmlns:dc="http://purl.org/dc/elements/1.1/"
   xmlns:cc="http://creativecommons.org/ns#"
   xmlns:rdf="http://www.w3.org/1999/02/22-rdf-syntax-ns#"
   xmlns:svg="http://www.w3.org/2000/svg"
   xmlns="http://www.w3.org/2000/svg"
   version="1.2"
   width="194.33957"
   height="348.16501"
   viewBox="0 0 194.33957 348.16501"
   id="Layer_1"
   xml:space="preserve"><metadata
     id="metadata3082"><rdf:RDF><cc:Work
         rdf:about=""><dc:format>image/svg+xml</dc:format><dc:type
           rdf:resource="http://purl.org/dc/dcmitype/StillImage" /><dc:title></dc:title></cc:Work></rdf:RDF></metadata><defs
     id="defs3080" /><g
     transform="translate(-1.848,-5.89)"
     id="g3072"><g
       id="g3074"><path
         d="m 152.06107,170.73891 c 18.631,-9.483 37.54631,-30.2014 37.07133,-51.29129 -0.4253,-18.88381 5.19623,-38.641567 -35.22751,-44.385085 L 153.89689,5.89 l -32.139,0 -0.009,51.354 c -8.456,0 -4.40089,0.166 -12.98189,0.338 L 108.76,5.897 76.65,5.894 76.644,58.622 c -6.959,0.142 -13.793,0.277 -20.466,0.277 l 0,-0.156 -44.33,-0.018 0.006,17.381855 c 0,0 23.734,-0.446 23.343,-0.013 13.013,0.009 17.262,7.559 18.484,14.076 l 0.01,76.983145 0,107.6347 c -0.573,4.09 -2.984,10.625 -12.083,10.637 0.414,0.364 -23.379,-0.004 -23.379,-0.004 l -6.375,15.0973 41.817,0 c 7.792,0.009 15.448,0.13 22.959,0.19 l 0.028,53.338 32.102,0.009 -0.009,-52.779 c 8.832,0.18 4.68189,0.258 13.00889,0.247 l -0.009,52.532 32.138,0 0.018,-79.39008 c 18.10919,0.0688 34.45247,-35.15964 33.16846,-57.14733 -1.13547,-19.44405 -4.34328,-39.42468 -35.01428,-46.77868 z M 79.431616,83.70215 c 18.126,0 82.525814,-0.485705 82.533814,37.3453 -0.008,36.269 -64.389814,38.36955 -82.533814,38.36955 z m -0.014,178.74485 0.014,-78.14088 c 21.778004,-0.006 81.634924,1.20788 81.643924,42.78888 0.009,39.876 -59.86592,35.336 -81.657924,35.352 z"
         id="path3076" /></g></g></svg>