<?xml version="1.0" encoding="UTF-8" standalone="no"?>
<!-- Created with Inkscape (http://www.inkscape.org/) -->

<svg
   xmlns:dc="http://purl.org/dc/elements/1.1/"
   xmlns:cc="http://creativecommons.org/ns#"
   xmlns:rdf="http://www.w3.org/1999/02/22-rdf-syntax-ns#"
   xmlns:svg="http://www.w3.org/2000/svg"
   xmlns="http://www.w3.org/2000/svg"
   xmlns:sodipodi="http://sodipodi.sourceforge.net/DTD/sodipodi-0.dtd"
   xmlns:inkscape="http://www.inkscape.org/namespaces/inkscape"
   width="405.5343"
   height="111.15121"
   id="svg2"
   version="1.1"
   inkscape:version="0.48.4 r9939"
   sodipodi:docname="gimp.eps">
  <defs
     id="defs4">
    <inkscape:perspective
       sodipodi:type="inkscape:persp3d"
       inkscape:vp_x="0 : 2048 : 1"
       inkscape:vp_y="0 : 1000 : 0"
       inkscape:vp_z="4096 : 2048 : 1"
       inkscape:persp3d-origin="2048 : 1365.3333 : 1"
       id="perspective2992" />
  </defs>
  <sodipodi:namedview
     id="base"
     pagecolor="#ffffff"
     bordercolor="#666666"
     borderopacity="1.0"
     inkscape:pageopacity="0.0"
     inkscape:pageshadow="2"
     inkscape:zoom="1.8101934"
     inkscape:cx="324.43524"
     inkscape:cy="33.593995"
     inkscape:document-units="px"
     inkscape:current-layer="svg2"
     showgrid="true"
     units="cm"
     inkscape:snap-global="false"
     fit-margin-top="0.3"
     fit-margin-left="0.6"
     fit-margin-right="0.5"
     fit-margin-bottom="-0.1"
     inkscape:window-width="1552"
     inkscape:window-height="827"
     inkscape:window-x="0"
     inkscape:window-y="47"
     inkscape:window-maximized="1">
    <inkscape:grid
       type="xygrid"
       id="grid2986"
       empspacing="8"
       visible="true"
       enabled="true"
       snapvisiblegridlinesonly="true"
       dotted="false"
       originx="-4799.4588px"
       originy="-2704.5693px" />
  </sodipodi:namedview>
  <metadata
     id="metadata7">
    <rdf:RDF>
      <cc:Work
         rdf:about="">
        <dc:format>image/svg+xml</dc:format>
        <dc:type
           rdf:resource="http://purl.org/dc/dcmitype/StillImage" />
        <dc:title></dc:title>
      </cc:Work>
    </rdf:RDF>
  </metadata>
  <g
     inkscape:label="Laag 1"
     inkscape:groupmode="layer"
     id="layer1"
     transform="translate(-2000.1871,207.70921)" />
  <path
     style="fill:#000000;fill-opacity:0.85521881;stroke:none"
     id="path3036"
     d="m 91.018134,48.474926 c -0.0224,0.75762 -0.0245,1.51575 -0.0312,2.27371 -0.0102,1.42793 -0.017,2.85586 -0.0245,4.28388 -0.0109,2.0668 -0.017,4.13361 -0.0224,6.200416 -0.007,2.52963 -0.0115,5.05925 -0.0163,7.58896 -0.0285,2.83001 0,5.65875 0.16373,8.48436 0.18111,2.79459 0.65409,5.55511 1.28814,8.27922 0.5726,2.54289 1.56365,4.933147 2.85043,7.189867 1.335,2.28832 3.163693,4.16657 5.216896,5.81078 2.78014,2.066221 5.83749,3.010371 9.17964,3.712881 0,0 -4.97092,3.45392 -4.97092,3.45392 l 0,0 c -3.39729,-0.73911 -6.607973,-1.77217 -9.420446,-3.8962 -2.10019,-1.70675 -3.97207,-3.648821 -5.34652,-6.001461 -1.31518,-2.30869 -2.34215,-4.74915 -2.92785,-7.350787 -0.64254,-2.75707 -1.1272,-5.54996 -1.32509,-8.37752 -0.17404,-2.83397 -0.21547,-5.67167 -0.19211,-8.5108 -0.007,-2.52405 -0.0129,-5.04819 -0.0163,-7.57223 -0.007,-2.05929 -0.0115,-4.118486 -0.0224,-6.177766 -0.007,-1.41974 -0.0143,-2.83947 -0.0245,-4.25921 -0.007,-0.74739 -0.008,-1.49504 -0.0312,-2.2421 0,0 5.6718,-2.88992 5.6718,-2.88992 z"
     inkscape:connector-curvature="0" />
  <path
     style="fill:#000000;fill-opacity:0.85521881;stroke:none"
     id="path3038"
     d="m 79.811094,41.774666 c 0.0204,-0.60937 0.0183,-1.21917 0.0197,-1.8288 0,-0.69888 0,-1.39785 -0.007,-2.09673 -0.0333,-0.62248 0.0176,-1.23025 0.18756,-1.82948 0.91723,-2.39608 6.05283,-4.22548 6.86337,-4.6883 0.98236,-0.37365 2.00281,-0.6311 3.02503,-0.86817 1.02201,-0.23141 2.05305,-0.41887 3.08641,-0.5918 0.93488,-0.17199 1.88797,-0.1998 2.83393,-0.13125 0.81224,0.0418 1.603503,0.17503 2.357693,0.48149 0.76729,0.36749 1.357,0.98321 1.921313,1.60314 0.54388,0.60904 1.00599,1.27893 1.41676,1.98263 0.40419,0.69744 0.68872,1.45025 0.94127,2.21277 0.25873,0.82675 0.43699,1.67506 0.60853,2.5232 0.15876,0.78991 0.30551,1.58083 0.3159,2.38798 -0.0156,0.91685 -0.47739,1.62612 -1.0745,2.27953 -2.419493,2.00368 -5.226663,3.58637 -8.159536,4.72034 -1.16965,0.42885 -2.38065,0.72779 -3.59572,0.99478 -1.32434,0.2741 -2.66111,0.48902 -4.00555,0.63456 -1.59536,0.13963 -2.72364,-0.003 -4.0856,-0.87231 -0.85055,-0.79785 -0.44636,-0.36097 -1.2034,-1.31856 0,0 5.34883,-3.20392 5.34883,-3.20392 l 0,0 c 0.70094,0.82947 0.32718,0.46164 1.10914,1.11564 1.25629,0.66651 2.46234,0.71037 3.85866,0.53415 1.33276,-0.17478 2.6611,-0.38988 3.97131,-0.69287 1.20062,-0.28872 2.398783,-0.60608 3.540453,-1.08378 2.048573,-0.90308 4.737793,-2.66452 -3.882023,2.36888 -0.95703,0.55883 2.328693,-1.23118 1.27144,-0.79524 0.585163,-0.48775 1.143903,-1.03864 1.264373,-1.8255 0.0564,-0.76675 -0.10138,-1.5166 -0.24277,-2.26771 -0.15965,-0.82515 -0.32786,-1.65004 -0.574433,-2.45449 -0.23394,-0.72195 -0.49851,-1.43486 -0.87886,-2.09478 -0.38694,-0.6644 -0.82393,-1.29676 -1.342,-1.86709 -0.51053,-0.54489 -1.04293,-1.08665 -1.7635,-1.34173 -0.72824,-0.21924 -1.48039,-0.30705 -2.23966,-0.33494 -0.92206,-0.0149 -1.84071,0.0543 -2.74647,0.23513 -1.0231,0.17994 -2.0443,0.37348 -3.05354,0.62087 -1.00572,0.25558 -2.01985,0.52401 -2.95026,0.99435 1.67359,-0.97229 3.35193,-1.93631 5.02077,-2.91672 0.11252,-0.0661 -0.23673,0.11056 -0.35122,0.17327 -0.35781,0.19574 -0.66618,0.44321 -0.86168,0.80765 -0.24135,0.52291 -0.3333,1.05715 -0.29119,1.63408 0,0.70015 0,1.40021 -0.007,2.10027 0,0.60287 0,1.20599 0.0197,1.8086 0,0 -5.67363,2.89086 -5.67363,2.89086 z"
     inkscape:connector-curvature="0" />
  <path
     style="fill:#000000;fill-opacity:0.85521881;stroke:none"
     id="path3060"
     d="m 187.49157,114.69452 c 0.0985,-2.95357 0.10159,-5.91052 0.13133,-8.86544 0.0844,-6.059611 0.0265,-12.120581 0.13901,-18.179928 0.0826,-4.45656 0.16916,-6.32238 0.32955,-10.78113 0.3462,-6.93082 0.75439,-13.89597 2.08131,-20.722906 0.8919,-4.58892 1.20835,-5.18536 2.5862,-9.63346 2.05204,-5.73557 4.76136,-11.24209 8.32801,-16.19342 2.00681,-2.78597 2.71896,-3.43473 4.98871,-5.93875 2.3306,-2.39296 4.8546,-4.590344 7.60065,-6.49505 2.37467,-1.647171 5.95776,-3.630473 8.18072,-4.814147 0.71398,-0.380162 1.47706,-0.660085 2.21556,-0.990049 2.48651,-0.97686 5.10504,-1.645902 7.79555,-1.39869 1.44535,0.13278 1.9315,0.341624 3.30636,0.737424 2.38166,0.858029 4.50283,2.26804 6.20365,4.144598 0.31367,0.346017 0.59542,0.719673 0.89313,1.07955 1.42008,1.996993 2.50627,4.265378 3.05469,6.662984 0.12061,0.52722 0.18634,1.06543 0.27944,1.59815 0.3462,3.1101 -0.3045,6.16433 -1.52168,9.02392 -0.29247,0.6873 -0.63697,1.35127 -0.95553,2.02691 -2.53017,4.96138 -6.10796,9.24375 -9.816,13.35462 -3.60659,3.86324 -7.55386,7.41292 -11.8508,10.49504 -0.90467,0.64884 -1.8382,1.256436 -2.75726,1.884666 -0.96056,0.59104 -1.90617,1.20692 -2.8816,1.77302 -3.79659,2.20347 -5.79274,3.40836 -9.37236,5.06002 -2.9851,1.37739 -6.0438,2.49007 -9.15058,3.55288 -3.75408,1.22408 -7.65172,1.83455 -11.56973,1.08277 -2.3162,-0.44449 -3.15133,-0.89463 -5.3235,-1.75824 -3.19112,-1.66948 -1.64628,-0.78264 -4.63864,-2.65336 0,0 3.42432,-2.20643 3.42432,-2.20643 l 0,0 c 2.94713,1.84672 1.42409,0.97542 4.57325,2.60654 2.16123,0.83825 2.95385,1.26574 5.25708,1.67515 3.87211,0.6884 7.71596,0.0236 11.41205,-1.18672 2.69118,-0.9308 3.40652,-1.13254 6.05377,-2.23406 6.36385,-2.64804 -0.27204,0.0184 6.05867,-2.83094 0.15476,-0.0697 -0.5474,0.39943 -0.40059,0.31433 0.97258,-0.56383 1.92098,-1.16839 2.88153,-1.75258 0.91873,-0.62154 1.85205,-1.22213 2.75618,-1.86472 4.29279,-3.050926 8.23599,-6.574146 11.84149,-10.408486 3.67898,-4.0567 7.22553,-8.28506 9.73601,-13.18947 0.31462,-0.66195 0.65396,-1.31265 0.94379,-1.98576 1.19762,-2.78132 1.8714,-5.75306 1.55257,-8.78776 -0.0891,-0.51776 -0.15116,-1.04085 -0.26742,-1.55319 -0.53124,-2.34074 -1.60126,-4.551135 -2.98984,-6.496911 -0.28983,-0.349569 -0.56398,-0.71274 -0.86956,-1.048619 -1.65634,-1.82035 -3.72617,-3.176693 -6.05052,-3.982236 -1.35273,-0.367402 -1.80608,-0.559425 -3.22481,-0.661864 -2.62986,-0.189911 -5.1815,0.51066 -7.60051,1.480336 -0.72186,0.329618 -1.39367,0.804531 -2.16551,0.988779 -0.44229,0.105644 1.53159,-0.980413 1.14288,-0.744603 -3.71048,2.250968 -7.15795,4.880664 -10.18508,8.004368 -2.30601,2.48914 -3.03711,3.14239 -5.08195,5.9166 -3.62764,4.92158 -6.40011,10.409 -8.48562,16.14609 -0.49641,1.57576 -1.05359,3.1336 -1.48929,4.72727 -2.2758,8.32478 -2.84038,16.997006 -3.28796,25.574586 -0.1587,4.48022 -0.24902,6.2791 -0.30165,10.75544 -0.0706,6.001367 0.075,12.002487 0.197,18.002088 0.078,2.88419 0.16318,5.7682 0.29791,8.65043 0,0 -4.00438,2.04036 -4.00438,2.04036 z"
     inkscape:connector-curvature="0" />
  <path
     style="fill:#000000;fill-opacity:0.85521881;stroke:none"
     id="path3146"
     d="m 66.40759,50.529646 c -0.170313,-0.75424 -0.609065,-1.41179 -1.044897,-2.03672 -0.790515,-1.10229 -1.773481,-2.02928 -2.7849,-2.92331 -1.336697,-1.10347 -2.82741,-1.98102 -4.362941,-2.77304 -1.814836,-0.92548 -3.761142,-1.52454 -5.752471,-1.92135 -2.080628,-0.36326 -4.187332,-0.55165 -6.298653,-0.55478 14.252084,0.13227 8.653696,-0.35159 5.635533,0.32067 -1.143907,0.25473 -2.204627,0.67766 -3.28212,1.12746 -2.287679,1.00535 -4.345965,2.41165 -6.287856,3.96754 -1.965252,1.66087 -3.640131,3.61957 -5.196035,5.65916 -1.473735,1.96538 -2.62647,4.13446 -3.699278,6.33616 -0.980249,2.02514 -1.798674,4.118976 -2.444954,6.272836 -0.599694,1.98415 -0.802534,4.03405 -0.848032,6.09604 -0.0068,2.06453 0.355769,4.09896 0.778631,6.1116 0.423676,2.04913 1.101669,4.02888 1.861965,5.97399 0.771908,2.09655 1.890078,4.02052 3.137816,5.86336 1.372078,2.002307 3.0731,3.709657 4.948375,5.235047 2.012651,1.55065 4.287495,2.68843 6.583255,3.74998 2.239871,1.01337 4.548465,1.86354 6.932165,2.46463 3.509476,0.868511 13.444253,0.560191 -1.989223,0.520801 1.848043,-0.0317 3.686239,-0.240961 5.476968,-0.698451 1.708969,-0.4826 2.922685,-1.67118 4.01179,-3.00885 1.125844,-1.47577 1.953165,-3.14035 2.732882,-4.81601 0.668689,-1.45498 1.266617,-2.940807 1.83032,-4.439137 0.440042,-1.18706 0.843619,-2.38722 1.230421,-3.59253 0.313938,-0.951 0.596095,-1.91079 0.834583,-2.88342 0.26118,-0.92978 0.32881,-1.86963 0.19959,-2.8229 -0.21473,-0.99732 -0.892109,-1.7022 -1.629045,-2.35586 -1.157149,-0.88939 -2.513268,-1.42464 -3.876857,-1.90521 -1.832492,-0.61977 -3.730787,-0.99934 -5.628336,-1.35516 -2.073089,-0.35785 -4.15263,-0.68671 -6.244395,-0.91415 -1.8913,-0.21891 -3.794145,-0.29277 -5.695088,-0.37315 -3.555993,-0.0966 -11.592747,-0.0441 3.92317,-0.0419 -0.228035,0 -0.456137,6.8e-4 -0.684171,0.001 -0.0095,0.0618 -8.749107,-1.31984 -8.739329,-1.38162 l 0,0 c 0.229733,0 0.459465,-0.001 0.689197,-0.001 4.499775,0 9.015373,-0.0928 13.516235,0.0851 1.897956,0.0915 3.796115,0.19904 5.682187,0.44009 2.090406,0.26902 4.1747,0.58901 6.24616,0.97888 1.92315,0.38507 3.845962,0.80488 5.686872,1.49547 1.42185,0.56281 2.83074,1.20083 3.96127,2.25908 0.81503,0.84358 1.48439,1.77134 1.67664,2.95873 0.12094,1.05817 0.0786,2.10932 -0.20365,3.14289 -0.2366,0.99723 -0.50748,1.9844 -0.84872,2.95163 -0.39984,1.21807 -0.8138,2.43167 -1.26451,3.63199 -0.57212,1.52116 -1.18662,3.026757 -1.86733,4.502877 -0.79819,1.7327 -1.63413,3.45746 -2.74612,5.01563 -1.09257,1.46817 -2.31253,2.85122 -4.050702,3.556021 -1.792291,0.59991 -3.664442,0.84112 -5.549766,0.9275 -5.087722,0.01 -10.35472,0.52401 -15.355994,-0.73852 -2.377996,-0.688231 -4.697931,-1.559871 -6.936512,-2.620151 -2.319255,-1.12037 -4.60999,-2.32965 -6.611573,-3.97073 -1.883899,-1.61692 -3.592596,-3.41167 -4.97744,-5.482947 -1.260572,-1.90757 -2.379082,-3.90136 -3.169665,-6.05479 -0.765253,-1.99345 -1.443448,-4.02264 -1.870181,-6.11886 -0.42456,-2.07948 -0.792552,-4.17942 -0.782841,-6.31003 0.04618,-2.13966 0.248746,-4.2691 0.865281,-6.32982 0.647026,-2.2033 1.467488,-4.346936 2.46777,-6.415686 1.091618,-2.25029 2.245304,-4.47768 3.723318,-6.50442 1.566361,-2.10079 3.25618,-4.11536 5.216679,-5.86396 1.935033,-1.63754 4.000381,-3.10942 6.294375,-4.20934 5.403017,-2.47765 8.014005,-2.02268 15.020054,-1.79449 2.114921,0.084 4.22699,0.285 6.299536,0.73033 2.016251,0.49383 3.991418,1.15173 5.818749,2.15335 1.557942,0.85811 3.075812,1.79998 4.411432,2.98399 1.04238,0.95742 2.04626,1.96167 2.84275,3.13943 0.48969,0.76235 0.96436,1.55876 1.13984,2.46007 0,0.0633 -8.951545,0.16235 -8.952224,0.0991 z"
     inkscape:connector-curvature="0" />
  <path
     style="fill:#000000;fill-opacity:0.85521881;stroke:none"
     id="path3162"
     d="m 97.915187,88.909402 c 0.79507,-1.47248 1.55761,-2.96101 2.296853,-4.46231 1.29847,-2.64406 2.5043,-5.32946 3.60006,-8.06336 1.2032,-3.06024 2.27077,-6.17058 3.29903,-9.29302 0.86963,-2.63435 1.62008,-5.30495 2.3249,-7.987296 0.5618,-2.11067 1.13236,-4.21898 1.70217,-6.32737 0.41723,-1.44306 0.8276,-2.88958 1.35246,-4.29783 0.29696,-0.71257 0.61999,-1.44339 1.26125,-1.90571 5.29226,-0.35269 6.34727,-1.52539 7.38952,2.04965 0.41498,1.68394 0.60023,3.4136 0.79682,5.13346 0.22512,2.11422 0.3904,4.23393 0.59236,6.35035 0.21079,2.095876 0.35557,4.197596 0.54666,6.295246 0.18111,1.91679 0.36344,3.83349 0.52282,5.75222 0.15341,1.89439 0.26029,3.79215 0.35923,5.69001 0.0964,1.83405 0.17765,3.66868 0.2516,5.50374 0.0652,1.71563 0.11619,3.43177 0.17032,5.14782 0.15136,1.272337 -0.14343,2.648287 0.27366,3.877097 -0.053,0.23995 0.75066,-0.076 0.5616,-0.084 -1.93191,-0.0815 -3.86871,0.0149 -5.80027,-0.0722 -0.16997,-0.008 0.32596,-0.10007 0.48201,-0.16786 0.45003,-0.19566 0.68078,-0.36867 1.09923,-0.63642 1.5381,-1.09367 2.722,-2.586077 3.87521,-4.059567 1.448,-1.85873 2.77363,-3.8078 4.08181,-5.76608 1.28345,-1.8774 2.40142,-3.85623 3.43702,-5.87849 1.08306,-2.12411 2.02915,-4.3138 2.9148,-6.52632 0.84926,-2.0843 1.56073,-4.22007 2.23288,-6.36683 0.53606,-1.7415 1.03743,-3.493386 1.5248,-5.249086 0.34762,-1.25179 0.67215,-2.51636 1.19484,-3.70874 1.46701,-2.90573 3.77194,-1.32126 7.5923,-1.28602 0.80552,0.67419 1.32271,1.611 1.82977,2.51357 0.86875,1.6814 1.57295,3.44276 2.29855,5.18924 0.9285,2.271166 1.83446,4.551976 2.69791,6.848666 0.90928,2.40336 1.76818,4.82531 2.66307,7.23399 0.83255,2.26779 1.74543,4.50372 2.71543,6.71581 0.84362,2.00367 1.88539,3.90448 3.06835,5.72517 1.22179,1.85213 2.79929,3.390267 4.56781,4.711037 0.36229,0.20614 0.72465,0.41228 1.087,0.61842 0.007,0.0434 -6.12779,0.67952 -6.13227,0.63616 l 0,0 c -0.36963,-0.2298 -0.73925,-0.4596 -1.10887,-0.68932 -1.77722,-1.40173 -3.36952,-3.008007 -4.59777,-4.923007 -1.17786,-1.85679 -2.21406,-3.79242 -3.0604,-5.82465 -0.9628,-2.22537 -1.86943,-4.47397 -2.70293,-6.75131 -0.88634,-2.41003 -1.7489,-4.82886 -2.66063,-7.22959 -0.86956,-2.2896 -1.77579,-4.56551 -2.721,-6.825006 -0.73374,-1.72341 -1.43808,-3.46795 -2.35158,-5.10625 -0.44174,-0.73057 -0.93862,-1.77809 -1.84112,-1.99048 2.00525,-0.0139 4.01077,-0.005 6.01575,-0.0416 0.0745,-10e-4 -0.13948,-0.0632 -0.21391,-0.0645 -0.4268,-0.007 -0.69259,0.52199 -0.88042,0.81383 -0.57029,1.14066 -0.88043,2.38409 -1.23273,3.60462 -0.49777,1.76237 -1.01719,3.518646 -1.56168,5.267156 -0.67833,2.16164 -1.39903,4.31187 -2.24741,6.41366 -0.88959,2.22942 -1.84118,4.43576 -2.91915,6.58143 -1.03084,2.04846 -2.13855,4.05813 -3.43573,5.95252 -1.31544,1.96649 -2.64616,3.9251 -4.08058,5.80758 -1.15172,1.52107 -2.33501,3.055747 -3.83292,4.255487 -2.34221,1.74994 -6.9803,3.37979 -8.83208,0.52832 -0.3011,-1.31696 -0.1348,-2.68861 -0.22919,-4.028557 -0.0441,-1.71411 -0.0945,-3.42805 -0.16067,-5.14141 -0.0699,-1.83218 -0.14634,-3.66419 -0.2391,-5.49536 -0.10057,-1.89185 -0.21133,-3.78329 -0.36684,-5.67151 -0.15721,-1.91712 -0.32772,-3.83298 -0.50809,-5.74807 -0.18471,-2.09681 -0.32928,-4.19726 -0.54013,-6.291866 -0.20047,-2.11236 -0.36548,-4.2281 -0.60153,-6.33691 -0.20081,-1.68233 -0.39292,-3.37802 -0.85401,-5.01311 -0.13969,-0.40332 -0.26552,-0.86453 -0.55168,-1.19787 -0.27476,-0.32007 -0.55753,-0.15687 -0.38137,-0.15881 2.01978,-0.0221 4.03963,-0.0414 6.05948,-0.0621 -0.71677,-0.16168 -0.99696,0.82862 -1.26424,1.31443 -0.55963,1.37806 -0.96375,2.81073 -1.39646,4.23232 -0.58869,2.10527 -1.17895,4.2101 -1.75005,6.32027 -0.71853,2.694346 -1.47611,5.378566 -2.36041,8.024056 -1.04524,3.12979 -2.12836,6.24724 -3.31268,9.32759 -1.07783,2.74904 -2.26656,5.44956 -3.54791,8.11028 -0.70583,1.48811 -1.43258,2.96599 -2.14908,4.44878 0,0.0446 -6.314273,-0.21958 -6.312443,-0.26421 z"
     inkscape:connector-curvature="0" />
  <path
     style="fill:#000000;fill-opacity:0.85521881;stroke:none"
     d="m 276.43817,61.0625 c -0.97363,0.03028 -1.96353,0.147452 -2.9375,0.21875 -1.27106,0.164001 -2.48902,0.486419 -3.71875,0.84375 -1.36046,0.399198 -2.72294,0.825266 -4.03125,1.375 -1.28004,0.552717 -2.53406,1.135856 -3.71875,1.875 -0.88452,0.568307 -1.73721,1.210316 -2.5,1.9375 -0.49765,0.457336 -0.97227,0.915944 -1.4375,1.40625 -0.002,0.03296 4.65425,0.37671 4.65625,0.34375 0.45308,-0.469478 0.92006,-0.939778 1.40625,-1.375 0.74506,-0.712832 1.56488,-1.301356 2.4375,-1.84375 1.18,-0.712816 2.44719,-1.28488 3.71875,-1.8125 1.31004,-0.526661 2.67319,-0.930258 4.03125,-1.3125 0.49966,-0.145594 0.99535,-0.290536 1.5,-0.40625 0.20237,0.07413 0.39895,0.146688 0.59375,0.25 0.9153,0.534029 1.51839,1.381162 2.03125,2.28125 0.67174,1.22674 0.79705,2.566908 0.78125,3.9375 -0.0764,1.896557 -0.62795,3.742077 -1.21875,5.53125 -0.74373,2.064278 -1.67651,4.039081 -2.65625,6 -1.00309,1.971397 -2.12041,3.9116 -3.25,5.8125 -1.08314,1.80779 -2.2401,3.547664 -3.4375,5.28125 -1.14653,1.63601 -2.3537,3.215605 -3.59375,4.78125 -1.0423,1.310795 -2.09325,2.612246 -3.15625,3.90625 -0.1485,0.18603 -0.28976,0.37583 -0.4375,0.5625 -0.60892,0.42554 -1.22597,0.84966 -1.78125,1.34375 -0.40527,0.3889 -0.81239,0.80267 -1.0625,1.3125 0.052,0.002 0.10426,-0.002 0.15625,0 -0.0132,0.006 -0.0179,0.0259 -0.0312,0.0312 -0.0295,0.0119 -0.0726,0.005 -0.125,0 0.004,-0.008 -0.004,-0.023 0,-0.0312 -0.0312,-0.001 -0.0625,0.001 -0.0937,0 -0.0398,-0.001 0.002,0.023 0.0625,0.0312 -0.0137,0.0294 -0.0188,0.0636 -0.0312,0.0937 3.78748,0.46719 3.79551,1.426 5.59375,-0.25 0.58594,-0.60396 1.10351,-1.24737 1.625,-1.90625 0.26874,-0.188 0.53984,-0.38005 0.8125,-0.5625 0.86593,-0.58346 1.77203,-1.093431 2.6875,-1.59375 0.82097,-0.451633 1.65948,-0.845659 2.53125,-1.1875 0.81602,-0.314542 1.65632,-0.553532 2.5,-0.78125 0.67614,0.348448 1.26884,0.825281 1.875,1.28125 0.59151,0.44325 1.16813,0.919549 1.75,1.375 0.67912,0.50827 1.38582,0.96028 2.125,1.375 0.794,0.42711 1.58998,0.83586 2.40625,1.21875 0.8146,0.38249 1.6609,0.73729 2.5,1.0625 1.0331,0.39233 2.1066,0.62837 3.1875,0.84375 0.81088,0.13751 0.40549,0.08 1.21875,0.1875 0.005,0.0322 4.5675,-0.62405 4.5625,-0.65625 -0.80968,-0.084 -0.41224,-0.0393 -1.21875,-0.15625 -1.06838,-0.19924 -2.15908,-0.42199 -3.1875,-0.78125 -0.84125,-0.30038 -1.65882,-0.65494 -2.46875,-1.03125 -0.81837,-0.36558 -1.6145,-0.7676 -2.40625,-1.1875 -0.73687,-0.38429 -1.44309,-0.837427 -2.125,-1.3125 -0.59086,-0.44756 -1.13403,-0.919503 -1.71875,-1.375 -0.66114,-0.488604 -1.30575,-1.012456 -2.03125,-1.40625 -2.06417,-1.124872 -4.33844,-1.014444 -6.75,-0.59375 -0.76741,0.13671 -1.49895,0.355487 -2.25,0.5625 -0.10459,0.03002 -0.20812,0.06297 -0.3125,0.09375 0.0414,-0.05251 0.0837,-0.103695 0.125,-0.15625 1.23695,-1.576253 2.44962,-3.167019 3.59375,-4.8125 1.1965,-1.743492 2.35579,-3.526245 3.4375,-5.34375 1.12919,-1.911869 2.24921,-3.829556 3.25,-5.8125 0.98343,-1.98293 1.91256,-4.006596 2.65625,-6.09375 0.60484,-1.834447 1.1639,-3.681648 1.25,-5.625 0.0282,-1.445071 -0.0804,-2.907201 -0.75,-4.21875 -0.51451,-0.966569 -1.1116,-1.89813 -2.03125,-2.53125 -1.3926,-0.894926 -2.97104,-1.050459 -4.59375,-1 z m 0.21875,35.59375 c 0.95876,0.02449 0.7146,0.03661 -0.15625,0.03125 0.0522,-0.0066 0.10387,-0.02583 0.15625,-0.03125 z"
     id="path3208"
     inkscape:connector-curvature="0" />
  <path
     style="fill:#000000;fill-opacity:0.85521881;stroke:none"
     id="path3212"
     d="m 300.18189,98.353038 c -0.0476,0.612046 0.188,1.179261 0.42963,1.727412 0.56676,1.15303 1.35161,2.17846 2.12277,3.1995 0.002,0.0324 -4.57492,0.32848 -4.57701,0.29611 l 0,0 c -0.79241,-1.05272 -1.59594,-2.11265 -2.16594,-3.30718 -0.25925,-0.612061 -0.4993,-1.239677 -0.48439,-1.915842 0,-0.03306 4.67494,-0.03306 4.67494,0 z"
     inkscape:connector-curvature="0" />
  <path
     style="fill:#000000;fill-opacity:0.85521881;stroke:none"
     d="m 317.42397,50.78125 c -1.44844,0.07042 -2.86568,0.312922 -4.28125,0.96875 -1.47491,0.74248 -2.89569,1.602751 -4.21875,2.59375 -1.47823,1.121684 -2.86594,2.323838 -4.0625,3.75 -1.16752,1.386797 -2.31441,2.83568 -2.6875,4.65625 -0.25404,1.73486 10e-4,3.076281 0.6875,4.6875 0.59143,1.553943 1.15485,3.163227 2.125,4.53125 0.86343,1.294577 1.78319,2.549532 2.8125,3.71875 0.70006,0.774633 1.41068,1.520551 2.1875,2.21875 0.43596,0.426908 0.8846,0.81595 1.28125,1.28125 0.28523,0.330034 0.58687,0.670254 0.78125,1.0625 1.1e-4,0.0044 0.48102,2.96e-4 0.625,0 -0.0731,0.104104 -0.14608,0.208119 -0.21875,0.3125 -0.0257,0.0035 -0.25011,0.02947 -0.25,0.03125 0.0457,0.04858 0.0805,0.106754 0.125,0.15625 -0.16612,0.240064 -0.33747,0.476168 -0.5,0.71875 -0.44617,0.646275 -0.89692,1.302311 -1.3125,1.96875 -0.53726,0.82231 -0.98734,1.675002 -1.40625,2.5625 -0.49962,1.118236 -0.86897,2.288705 -1.1875,3.46875 -0.32863,1.309883 -0.5753,2.656727 -0.71875,4 -0.13885,1.343234 0.0364,2.68118 0.28125,4 0.26028,1.405126 0.7966,2.70237 1.5,3.9375 0.85856,1.37151 1.98974,2.51544 3.15625,3.625 1.02198,0.94655 2.07704,1.87902 3.3125,2.53125 0.55045,0.22383 1.14794,0.379 1.75,0.375 3.22897,-0.0194 4.1621,0.57733 6.25,-0.59375 1.21,-0.81147 2.01845,-2.02001 2.75,-3.25 0.77557,-1.3644 1.37372,-2.83092 1.78125,-4.34375 0.39718,-1.569221 0.21902,-3.173278 -0.0312,-4.75 -0.23488,-1.545926 -0.80386,-2.971835 -1.46875,-4.375 -0.62692,-1.293829 -1.48147,-2.469413 -2.40625,-3.5625 -0.80917,-0.943016 -1.76403,-1.741161 -2.71875,-2.53125 -0.74895,-0.593298 -1.49905,-1.18344 -2.21875,-1.8125 -0.54377,-0.481834 -1.04907,-0.988262 -1.53125,-1.53125 -0.13883,-0.163564 -0.27062,-0.333966 -0.40625,-0.5 0.24266,-0.347637 0.47415,-0.71624 0.71875,-1.0625 0.62535,-0.850171 1.31377,-1.648627 1.9375,-2.5 0.78518,-1.072138 1.53732,-2.17063 2.21875,-3.3125 0.83646,-1.396671 1.67166,-2.773551 2.53125,-4.15625 0.86869,-1.442901 1.7011,-2.921924 2.375,-4.46875 0.61672,-1.44555 1.15502,-2.92628 1.3125,-4.5 0.0658,-1.364806 -0.0147,-2.758981 -0.5625,-4.03125 -0.62021,-1.309381 -1.43139,-2.49985 -2.34375,-3.625 -0.95021,-1.118634 -1.91783,-2.117972 -3.46875,-2.21875 -1.56306,-2.98e-4 -3.05156,-0.101671 -4.5,-0.03125 z m 1.5625,1.0625 c 0.68449,0.311495 1.24134,0.837076 1.84375,1.5 0.90555,1.080573 1.6885,2.267285 2.3125,3.53125 0.54384,1.194865 0.6235,2.490094 0.5625,3.78125 -0.15315,1.518574 -0.67572,2.95354 -1.28125,4.34375 -0.67349,1.525859 -1.54557,2.981173 -2.40625,4.40625 -0.86681,1.380102 -1.68599,2.763075 -2.53125,4.15625 -0.68716,1.129255 -1.46068,2.222174 -2.25,3.28125 -0.1895,0.250162 -0.36802,0.503994 -0.5625,0.75 -0.021,-0.02006 -0.0414,-0.0425 -0.0625,-0.0625 -0.77602,-0.703421 -1.52956,-1.427066 -2.25,-2.1875 -1.04075,-1.136119 -1.9522,-2.380402 -2.8125,-3.65625 -0.96381,-1.337193 -1.5477,-2.877514 -2.125,-4.40625 -0.64113,-1.538291 -0.91738,-2.812588 -0.65625,-4.46875 0.3843,-1.733292 1.49559,-3.064004 2.625,-4.375 1.19377,-1.39912 2.61716,-2.602133 4.09375,-3.6875 1.32674,-0.962606 2.73876,-1.798019 4.21875,-2.5 0.3801,-0.173848 0.81838,-0.29813 1.28125,-0.40625 z m -3.8125,31.8125 c 0.52708,0.439178 1.04549,0.867714 1.59375,1.28125 0.95223,0.76761 1.90301,1.552804 2.71875,2.46875 0.92437,1.049439 1.77161,2.154218 2.40625,3.40625 0.65993,1.359329 1.26734,2.776194 1.5,4.28125 0.24927,1.512517 0.39603,3.026482 0,4.53125 -0.40911,1.47058 -1.00629,2.90041 -1.78125,4.21875 -0.65089,1.04984 -1.34108,2.08969 -2.375,2.78125 -0.92311,-0.5372 -1.73111,-1.24992 -2.53125,-1.96875 -1.15641,-1.06725 -2.29224,-2.17562 -3.15625,-3.5 -0.69985,-1.180066 -1.20896,-2.426997 -1.46875,-3.78125 -0.24136,-1.274294 -0.41879,-2.575653 -0.28125,-3.875 0.14466,-1.319299 0.41623,-2.622034 0.75,-3.90625 0.31842,-1.153496 0.64668,-2.28902 1.15625,-3.375 0.42646,-0.869628 0.90372,-1.722441 1.4375,-2.53125 0.008,-0.01221 0.0234,-0.01905 0.0312,-0.03125 z"
     id="path3226"
     inkscape:connector-curvature="0" />
  <path
     style="fill:#000000;fill-opacity:0.85521881;stroke:none"
     id="path3230"
     d="m 336.33922,106.08681 c -0.18023,-0.38606 -0.42459,-0.73732 -0.66821,-1.0852 -0.85504,-1.0303 -1.67326,-2.07848 -2.40807,-3.08119 -0.0613,-0.0849 -0.12265,-0.16983 -0.18398,-0.25474 -0.002,-0.0328 4.63361,-0.32221 4.63566,-0.28943 l 0,0 c 0.0613,0.0856 0.12267,0.17124 0.184,0.25686 0.38919,0.54609 0.79772,1.07673 1.22266,1.5956 0.77094,0.85791 1.36752,1.74465 1.88965,2.66884 0.001,0.033 -4.67037,0.2223 -4.67171,0.18926 z"
     inkscape:connector-curvature="0"
     sodipodi:nodetypes="cccccccccc" />
  <path
     style="fill:#000000;fill-opacity:0.85521881;stroke:none"
     d="m 350.38059,51.71875 c -1.10593,-0.08235 -2.23536,0.275356 -2.5625,1.125 -0.11601,0.24725 -0.172,0.520241 -0.25,0.78125 -0.12433,0.433471 -0.25467,0.856301 -0.40625,1.28125 -0.179,0.494128 -0.37263,0.991793 -0.59375,1.46875 -0.2693,0.575701 -0.5819,1.140591 -0.90625,1.6875 -0.40217,0.686468 -0.8073,1.360253 -1.28125,2 -0.51385,0.679486 -1.03672,1.349586 -1.65625,1.9375 -0.60309,0.575734 -1.23575,1.121116 -1.875,1.65625 -0.69925,0.587441 -1.4278,1.147461 -2.1875,1.65625 -0.72463,0.473865 -1.46371,0.950897 -2.21875,1.375 -0.60781,0.337391 -1.21111,0.659846 -1.875,0.875 -0.42189,0.142953 -0.86695,0.25102 -1.3125,0.28125 -0.005,0.03271 4.62,0.68896 4.625,0.65625 0.45036,-0.0357 0.89314,-0.222819 1.3125,-0.375 0.65791,-0.256556 1.2671,-0.612649 1.875,-0.96875 0.75506,-0.434419 1.49616,-0.888764 2.21875,-1.375 0.75028,-0.542597 1.45455,-1.146475 2.15625,-1.75 0.65279,-0.533389 1.27282,-1.066558 1.875,-1.65625 0.3655,-0.367559 0.71058,-0.780946 1.03125,-1.1875 0.005,0.459321 -0.004,0.915671 0,1.375 0.0883,14.483696 0.0333,29.090842 0.0312,43.6875 0,0.033 4.6875,0.033 4.6875,0 -0.0132,-14.524459 -0.0224,-29.049874 -0.0937,-43.6875 -0.007,-0.971672 -0.0208,-1.965855 -0.0312,-2.9375 -0.0102,-0.881781 -0.0145,-1.743313 -0.0312,-2.625 -0.0132,-0.758933 -0.0386,-1.522567 -0.0625,-2.28125 -0.0184,-0.500168 -0.0222,-1.003897 -0.0937,-1.5 -0.19361,-0.896595 -1.26907,-1.41765 -2.375,-1.5 z m 2.15625,1.34375 c 0.0102,0.0039 0.0152,0.02038 0.0312,0.0625 -0.0313,3e-6 -0.0624,2.2e-5 -0.0937,0 0.008,-0.01182 0.0227,-0.0197 0.0312,-0.03125 0.0354,-0.0089 0.021,-0.03516 0.0312,-0.03125 z"
     id="path3232"
     inkscape:connector-curvature="0" />
  <path
     style="fill:#000000;fill-opacity:0.85521881;stroke:none"
     d="m 374.68896,57.25 c -1.05682,0.03828 -2.11537,0.204276 -3.125,0.5 -1.01841,0.358394 -2.03604,0.76221 -3,1.25 -1.05716,0.54773 -2.08499,1.116467 -3.03125,1.84375 -1.07473,0.832655 -2.11063,1.747938 -3,2.78125 -1.03672,1.232246 -1.95258,2.531794 -2.6875,3.96875 -0.87824,1.820365 -1.53776,3.726283 -1.90625,5.71875 -0.50389,2.532895 -1.02785,5.071396 -1.15625,7.65625 -0.10886,3.024959 -0.23504,6.067527 -0.125,9.09375 0.097,1.131578 0.0966,1.66927 0.375,2.75 0.3161,1.227155 0.94828,2.389912 1.59375,3.46875 0.88647,1.380401 1.82693,2.72141 2.96875,3.90625 0.88991,0.89559 1.80103,1.76342 2.875,2.4375 0.64641,0.39534 1.20128,0.61602 1.81836,0.88867 0.47982,0.212 1.11513,0.39792 1.46289,0.58008 1.33429,0.29995 2.76033,0.0463 4.09375,0.0625 0.3651,-0.0549 0.73971,-0.111 1.09375,-0.21875 0.51349,-0.16107 1.01761,-0.38613 1.5,-0.625 0.67668,-0.33349 1.36172,-0.65872 2,-1.0625 0.74315,-0.46981 1.46133,-0.9606 2.15625,-1.5 0.80352,-0.62589 1.60701,-1.262257 2.3125,-2 0.79501,-0.872303 1.47896,-1.828594 2.03125,-2.875 0.65356,-1.208022 1.27986,-2.433952 1.90625,-3.65625 0.58008,-1.173207 1.14174,-2.352704 1.5625,-3.59375 0.38995,-1.159858 0.73963,-2.327421 0.96875,-3.53125 0.20112,-1.164754 0.36555,-2.348604 0.40625,-3.53125 0.0457,-1.223144 0.066,-2.436933 -0.0625,-3.65625 -0.14315,-1.372633 -0.32156,-2.760895 -0.53125,-4.125 -0.23592,-1.514109 -0.53279,-2.999387 -0.84375,-4.5 -0.31721,-1.553089 -0.62287,-3.138397 -1.1875,-4.625 -0.47991,-1.239638 -1.02769,-2.429412 -1.78125,-3.53125 -0.68429,-0.966908 -1.44394,-1.848564 -2.46875,-2.46875 -0.9542,-0.564555 -1.95395,-1.079505 -3.0625,-1.25 -1.03701,-0.127054 -2.09943,-0.194528 -3.15625,-0.15625 z m 0.59375,0.75 c 0.84591,0.189896 1.61525,0.544499 2.375,0.96875 1.01304,0.575419 1.81231,1.418602 2.5,2.34375 0.75562,1.07113 1.30105,2.255117 1.78125,3.46875 0.57072,1.467204 0.9046,3.02487 1.21875,4.5625 0.30104,1.496668 0.57649,2.991787 0.8125,4.5 0.20757,1.35817 0.3631,2.726713 0.5,4.09375 0.1241,1.204549 0.1089,2.416965 0.0625,3.625 -0.043,1.16807 -0.17462,2.318496 -0.375,3.46875 -0.23011,1.186919 -0.58158,2.325204 -0.96875,3.46875 -0.41891,1.226134 -0.98503,2.404281 -1.5625,3.5625 -0.62482,1.219419 -1.24581,2.455658 -1.90625,3.65625 -0.55275,1.024631 -1.23172,1.939686 -2.03125,2.78125 -0.71639,0.710806 -1.54274,1.326157 -2.34375,1.9375 -0.69851,0.52701 -1.41053,1.01164 -2.15625,1.46875 -0.64127,0.39197 -1.27871,0.83976 -2,1.0625 -0.45064,0.13916 -0.93915,0.22156 -1.40625,0.1563 -0.73566,-0.10278 -1.41061,-0.47597 -2.0625,-0.84375 -1.08403,-0.63714 -2.04166,-1.46975 -2.9375,-2.34375 -1.15254,-1.153187 -2.083,-2.481627 -2.96875,-3.84375 -0.64067,-1.059731 -1.25189,-2.175176 -1.59375,-3.375 -0.30742,-1.078978 -0.31729,-1.546088 -0.4375,-2.6875 -0.14268,-3.011808 -0.001,-6.021017 0.125,-9.03125 0.12857,-2.5706 0.66838,-5.110543 1.1875,-7.625 0.37796,-1.968432 1.04746,-3.835011 1.9375,-5.625 0.74594,-1.409263 1.67677,-2.703564 2.71875,-3.90625 0.89574,-1.009955 1.92424,-1.878047 3,-2.6875 0.949,-0.708075 1.97591,-1.282177 3.03125,-1.8125 0.96671,-0.469279 1.97943,-0.883269 3,-1.21875 0.16532,-0.04156 0.33326,-0.08955 0.5,-0.125 z"
     id="path3238"
     inkscape:connector-curvature="0"
     sodipodi:nodetypes="sccccccccscccacccccccccccccccccccscccccccccccccccaacccscccccccccc" />
</svg>
