<?xml version="1.0" encoding="UTF-8" standalone="no"?>
<!-- Created with Inkscape (http://www.inkscape.org/) -->

<svg
   xmlns:dc="http://purl.org/dc/elements/1.1/"
   xmlns:cc="http://creativecommons.org/ns#"
   xmlns:rdf="http://www.w3.org/1999/02/22-rdf-syntax-ns#"
   xmlns:svg="http://www.w3.org/2000/svg"
   xmlns="http://www.w3.org/2000/svg"
   xmlns:xlink="http://www.w3.org/1999/xlink"
   xmlns:sodipodi="http://sodipodi.sourceforge.net/DTD/sodipodi-0.dtd"
   xmlns:inkscape="http://www.inkscape.org/namespaces/inkscape"
   id="svg3071"
   version="1.1"
   inkscape:version="0.48.4 r9939"
   width="200.11543"
   height="339.30231"
   sodipodi:docname="penseeleditor-svg.svg">
  <metadata
     id="metadata3077">
    <rdf:RDF>
      <cc:Work
         rdf:about="">
        <dc:format>image/svg+xml</dc:format>
        <dc:type
           rdf:resource="http://purl.org/dc/dcmitype/StillImage" />
        <dc:title></dc:title>
      </cc:Work>
    </rdf:RDF>
  </metadata>
  <defs
     id="defs3075">
    <linearGradient
       id="linearGradient4069">
      <stop
         style="stop-color:#000000;stop-opacity:1;"
         offset="0"
         id="stop4071" />
      <stop
         style="stop-color:#ffffff;stop-opacity:0;"
         offset="1"
         id="stop4073" />
    </linearGradient>
    <linearGradient
       id="linearGradient3289">
      <stop
         style="stop-color:#cdcdcd;stop-opacity:1;"
         offset="0"
         id="stop3291" />
      <stop
         style="stop-color:#acacac;stop-opacity:1;"
         offset="1"
         id="stop3293" />
    </linearGradient>
    <radialGradient
       inkscape:collect="always"
       xlink:href="#linearGradient3289"
       id="radialGradient3295"
       cx="712.78687"
       cy="565.00305"
       fx="712.78687"
       fy="565.00305"
       r="12.264963"
       gradientTransform="matrix(0.95179529,0.04460585,-0.04379005,1.3821609,-584.40979,-670.36774)"
       gradientUnits="userSpaceOnUse" />
    <radialGradient
       inkscape:collect="always"
       xlink:href="#linearGradient4069"
       id="radialGradient4075"
       cx="736.79144"
       cy="482.17325"
       fx="736.79144"
       fy="482.17325"
       r="41.025993"
       gradientTransform="matrix(1,0,0,1.0776364,-634.93427,-442.59884)"
       gradientUnits="userSpaceOnUse" />
  </defs>
  <sodipodi:namedview
     pagecolor="#ffffff"
     bordercolor="#666666"
     borderopacity="1"
     objecttolerance="10"
     gridtolerance="10"
     guidetolerance="10"
     inkscape:pageopacity="0"
     inkscape:pageshadow="2"
     inkscape:window-width="1552"
     inkscape:window-height="827"
     id="namedview3073"
     showgrid="false"
     showguides="true"
     inkscape:guide-bbox="true"
     inkscape:zoom="1.8879751"
     inkscape:cx="16.078519"
     inkscape:cy="226.63544"
     inkscape:window-x="0"
     inkscape:window-y="47"
     inkscape:window-maximized="1"
     inkscape:current-layer="svg3071"
     fit-margin-top="0"
     fit-margin-left="0"
     fit-margin-right="0"
     fit-margin-bottom="0" />
  <rect
     style="fill:#f7f7f7;fill-opacity:1;stroke:#000000;stroke-width:1;stroke-miterlimit:4;stroke-opacity:1;stroke-dasharray:none"
     id="rect4170-0"
     width="191.39554"
     height="26.658384"
     x="4.1994629"
     y="279.2009" />
  <rect
     style="fill:#eaeaea;fill-opacity:1;stroke:#ababab;stroke-width:1;stroke-miterlimit:4;stroke-opacity:1;stroke-dasharray:none"
     id="rect4528"
     width="199.11543"
     height="338.30231"
     x="0.5"
     y="0.5"
     rx="2"
     ry="2" />
  <rect
     style="fill:#f7f7f7;fill-opacity:1;stroke:#000000;stroke-width:1;stroke-miterlimit:4;stroke-opacity:1;stroke-dasharray:none"
     id="rect4170-0-7-1"
     width="191.39554"
     height="26.658384"
     x="4.1994019"
     y="278.82639" />
  <rect
     style="fill:#bdd2e6;fill-opacity:1;stroke:#a2bdd8;stroke-width:1;stroke-miterlimit:4;stroke-opacity:1;stroke-dasharray:none"
     id="rect4172-7"
     width="109.49233"
     height="21.027765"
     x="7.1086426"
     y="281.92276" />
  <g
     style="font-size:40px;font-style:normal;font-weight:normal;line-height:125%;letter-spacing:0px;word-spacing:0px;fill:#000000;fill-opacity:1;stroke:none;font-family:FreeSans;-inkscape-font-specification:FreeSans"
     id="text3083-7">
    <path
       d="m 10.242303,292.3899 -3.3750003,0 0,2.988 -0.837,0 0,-6.561 0.837,0 0,2.835 3.3750003,0 0,-2.835 0.837,0 0,6.561 -0.837,0 0,-2.988"
       style="font-size:9px;font-family:FreeSans;-inkscape-font-specification:FreeSans"
       id="path4673" />
    <path
       d="m 14.190631,290.5269 c 0.677997,0 1.202996,0.225 1.575,0.675 0.377996,0.444 0.566995,1.074 0.567,1.89 -5e-6,0.774 -0.192004,1.383 -0.576,1.827 -0.378004,0.444 -0.897003,0.666 -1.557,0.666 -0.672002,0 -1.197001,-0.222 -1.575,-0.666 -0.372001,-0.45 -0.558,-1.071 -0.558,-1.863 0,-0.792 0.188999,-1.41 0.567,-1.854 0.377999,-0.45 0.896998,-0.675 1.557,-0.675 m 0.009,0.693 c -0.420002,0 -0.750002,0.165 -0.99,0.495 -0.240001,0.324 -0.360001,0.771 -0.36,1.341 -1e-6,0.57 0.119999,1.02 0.36,1.35 0.239998,0.324 0.569998,0.486 0.99,0.486 0.413997,0 0.740997,-0.162 0.981,-0.486 0.245996,-0.33 0.368996,-0.771 0.369,-1.323 -4e-6,-0.582 -0.120004,-1.038 -0.36,-1.368 -0.234003,-0.33 -0.564003,-0.495 -0.99,-0.495"
       style="font-size:9px;font-family:FreeSans;-inkscape-font-specification:FreeSans"
       id="path4675" />
    <path
       d="m 21.122459,293.2719 -3.474,0 c 0.012,0.492 0.137999,0.885 0.378,1.179 0.245998,0.294 0.581998,0.441 1.008,0.441 0.611997,0 1.022997,-0.315 1.233,-0.945 l 0.756,0 c -0.096,0.516 -0.321004,0.918 -0.675,1.206 -0.354003,0.288 -0.801003,0.432 -1.341,0.432 -0.660002,0 -1.182001,-0.222 -1.566,-0.666 -0.384,-0.45 -0.576,-1.062 -0.576,-1.836 0,-0.774 0.195,-1.392 0.585,-1.854 0.395999,-0.468 0.920998,-0.702 1.575,-0.702 1.397996,0 2.096995,0.915 2.097,2.745 m -3.456,-0.612 2.655,0 c -4e-6,-0.408 -0.123004,-0.75 -0.369,-1.026 -0.246003,-0.276 -0.558003,-0.414 -0.936,-0.414 -0.378002,0 -0.690002,0.132 -0.936,0.396 -0.246001,0.258 -0.384001,0.606 -0.414,1.044"
       style="font-size:9px;font-family:FreeSans;-inkscape-font-specification:FreeSans"
       id="path4677" />
    <path
       d="m 22.681287,288.8169 0,3.843 1.998,-1.998 0.963,0 -1.638,1.629 1.926,3.087 -0.927,0 -1.593,-2.556 -0.729,0.72 0,1.836 -0.747,0 0,-6.561 0.747,0"
       style="font-size:9px;font-family:FreeSans;-inkscape-font-specification:FreeSans"
       id="path4679" />
  </g>
  <rect
     style="fill:#f7f7f7;fill-opacity:1;stroke:#000000;stroke-width:1;stroke-miterlimit:4;stroke-opacity:1;stroke-dasharray:none"
     id="rect4170-0-7-17"
     width="190.86238"
     height="26.919729"
     x="4.8137207"
     y="218.95395" />
  <rect
     style="fill:#bdd2e6;fill-opacity:1;stroke:#a2bdd8;stroke-width:1;stroke-miterlimit:4;stroke-opacity:1;stroke-dasharray:none"
     id="rect4172-7-0-6"
     width="57.031441"
     height="21.939552"
     x="6.9772339"
     y="221.444" />
  <g
     style="font-size:40px;font-style:normal;font-weight:normal;line-height:125%;letter-spacing:0px;word-spacing:0px;fill:#000000;fill-opacity:1;stroke:none;font-family:FreeSans;-inkscape-font-specification:FreeSans"
     id="text3083-7-9-5">
    <path
       d="m 10.334283,232.30237 -3.3750003,0 0,2.988 -0.837,0 0,-6.561 0.837,0 0,2.835 3.3750003,0 0,-2.835 0.837,0 0,6.561 -0.837,0 0,-2.988"
       style="font-size:9px;font-family:FreeSans;-inkscape-font-specification:FreeSans"
       id="path4703" />
    <path
       d="m 12.365611,231.96937 c 0.036,-1.01999 0.665999,-1.52999 1.89,-1.53 0.581997,1e-5 1.022996,0.11101 1.323,0.333 0.299996,0.21601 0.449996,0.53401 0.45,0.954 l 0,2.772 c -4e-6,0.24601 0.134996,0.36901 0.405,0.369 0.054,1e-5 0.107995,-0.006 0.162,-0.018 l 0,0.567 c -0.210005,0.054 -0.381004,0.081 -0.513,0.081 -0.240004,0 -0.423004,-0.057 -0.549,-0.171 -0.120004,-0.108 -0.195004,-0.28199 -0.225,-0.522 -0.504003,0.462 -1.038003,0.693 -1.602,0.693 -0.474002,0 -0.852001,-0.126 -1.134,-0.378 -0.276001,-0.25199 -0.414,-0.59099 -0.414,-1.017 0,-0.13799 0.012,-0.26399 0.036,-0.378 0.03,-0.11399 0.06,-0.21299 0.09,-0.297 0.036,-0.09 0.096,-0.17099 0.18,-0.243 0.084,-0.078 0.152999,-0.14099 0.207,-0.189 0.06,-0.048 0.155999,-0.093 0.288,-0.135 0.137999,-0.048 0.242999,-0.081 0.315,-0.099 0.072,-0.024 0.197998,-0.051 0.378,-0.081 0.179998,-0.03 0.311998,-0.051 0.396,-0.063 0.084,-0.012 0.233997,-0.033 0.45,-0.063 0.293997,-0.036 0.497997,-0.093 0.612,-0.171 0.113997,-0.078 0.170996,-0.19499 0.171,-0.351 l 0,-0.198 c -4e-6,-0.22799 -0.093,-0.40199 -0.279,-0.522 -0.180003,-0.11999 -0.438003,-0.17999 -0.774,-0.18 -0.348002,1e-5 -0.612002,0.069 -0.792,0.207 -0.180002,0.13201 -0.285001,0.34201 -0.315,0.63 l -0.756,0 m 1.503,2.871 c 0.413997,1e-5 0.752997,-0.10799 1.017,-0.324 0.263997,-0.22199 0.395996,-0.45899 0.396,-0.711 l 0,-0.846 c -0.150003,0.072 -0.378003,0.13201 -0.684,0.18 -0.300003,0.048 -0.561002,0.09 -0.783,0.126 -0.222002,0.036 -0.423002,0.12301 -0.603,0.261 -0.180001,0.13201 -0.270001,0.31801 -0.27,0.558 -10e-7,0.24001 0.081,0.42601 0.243,0.558 0.161998,0.13201 0.389998,0.19801 0.684,0.198"
       style="font-size:9px;font-family:FreeSans;-inkscape-font-specification:FreeSans"
       id="path4705" />
    <path
       d="m 19.58333,231.23137 c -0.504003,0.012 -0.882002,0.12901 -1.134,0.351 -0.252002,0.22201 -0.378002,0.64201 -0.378,1.26 l 0,2.448 -0.756,0 0,-4.716 0.693,0 0,0.855 c 0.215998,-0.35399 0.422998,-0.60599 0.621,-0.756 0.203998,-0.15599 0.425997,-0.23399 0.666,-0.234 0.066,1e-5 0.161997,0.009 0.288,0.027 l 0,0.765"
       style="font-size:9px;font-family:FreeSans;-inkscape-font-specification:FreeSans"
       id="path4707" />
    <path
       d="m 24.254611,228.72937 0,6.561 -0.666,0 0,-0.621 c -0.204004,0.29401 -0.426004,0.504 -0.666,0.63 -0.234003,0.132 -0.513003,0.198 -0.837,0.198 -0.636002,0 -1.137001,-0.228 -1.503,-0.684 -0.366001,-0.46199 -0.549,-1.09199 -0.549,-1.89 0,-0.74999 0.182999,-1.34999 0.549,-1.8 0.371999,-0.45599 0.863998,-0.68399 1.476,-0.684 0.647997,1e-5 1.130996,0.24301 1.449,0.729 l 0,-2.439 0.747,0 m -2.07,2.412 c -0.408002,1e-5 -0.738002,0.16801 -0.99,0.504 -0.252001,0.33601 -0.378001,0.77701 -0.378,1.323 -1e-6,0.55201 0.125999,0.99601 0.378,1.332 0.251998,0.33001 0.584998,0.49501 0.999,0.495 0.395997,1e-5 0.713997,-0.16499 0.954,-0.495 0.239996,-0.32999 0.359996,-0.76799 0.36,-1.314 -4e-6,-0.56399 -0.120004,-1.01099 -0.36,-1.341 -0.240003,-0.33599 -0.561003,-0.50399 -0.963,-0.504"
       style="font-size:9px;font-family:FreeSans;-inkscape-font-specification:FreeSans"
       id="path4709" />
    <path
       d="m 28.327955,232.02337 c -4e-6,-0.32999 -0.102004,-0.56699 -0.306,-0.711 -0.198003,-0.14399 -0.420003,-0.21599 -0.666,-0.216 -0.384003,1e-5 -0.693002,0.14701 -0.927,0.441 -0.234002,0.28801 -0.351002,0.67201 -0.351,1.152 l 0,2.601 -0.747,0 0,-6.561 0.747,0 0,2.493 c 0.221998,-0.28799 0.443998,-0.48899 0.666,-0.603 0.227997,-0.11999 0.509997,-0.17999 0.846,-0.18 0.455996,1e-5 0.815996,0.11701 1.08,0.351 0.269995,0.22801 0.404995,0.54001 0.405,0.936 l 0,3.564 -0.747,0 0,-3.267"
       style="font-size:9px;font-family:FreeSans;-inkscape-font-specification:FreeSans"
       id="path4711" />
    <path
       d="m 34.134361,233.18437 -3.474,0 c 0.012,0.49201 0.137999,0.88501 0.378,1.179 0.245998,0.29401 0.581998,0.44101 1.008,0.441 0.611997,1e-5 1.022996,-0.31499 1.233,-0.945 l 0.756,0 c -0.096,0.51601 -0.321004,0.91801 -0.675,1.206 -0.354004,0.288 -0.801003,0.432 -1.341,0.432 -0.660002,0 -1.182001,-0.222 -1.566,-0.666 -0.384001,-0.44999 -0.576,-1.06199 -0.576,-1.836 0,-0.77399 0.194999,-1.39199 0.585,-1.854 0.395999,-0.46799 0.920998,-0.70199 1.575,-0.702 1.397996,1e-5 2.096995,0.91501 2.097,2.745 m -3.456,-0.612 2.655,0 c -4e-6,-0.40799 -0.123004,-0.74999 -0.369,-1.026 -0.246003,-0.27599 -0.558003,-0.41399 -0.936,-0.414 -0.378002,1e-5 -0.690002,0.13201 -0.936,0.396 -0.246001,0.25801 -0.384001,0.60601 -0.414,1.044"
       style="font-size:9px;font-family:FreeSans;-inkscape-font-specification:FreeSans"
       id="path4713" />
    <path
       d="m 35.756189,230.57437 0,4.716 -0.747,0 0,-4.716 0.747,0 m 0,-1.845 0,0.945 -0.756,0 0,-0.945 0.756,0"
       style="font-size:9px;font-family:FreeSans;-inkscape-font-specification:FreeSans"
       id="path4715" />
    <path
       d="m 40.901095,228.72937 0,6.561 -0.666,0 0,-0.621 c -0.204003,0.29401 -0.426003,0.504 -0.666,0.63 -0.234003,0.132 -0.513002,0.198 -0.837,0.198 -0.636001,0 -1.137001,-0.228 -1.503,-0.684 -0.366,-0.46199 -0.549,-1.09199 -0.549,-1.89 0,-0.74999 0.183,-1.34999 0.549,-1.8 0.371999,-0.45599 0.863999,-0.68399 1.476,-0.684 0.647997,1e-5 1.130997,0.24301 1.449,0.729 l 0,-2.439 0.747,0 m -2.07,2.412 c -0.408002,1e-5 -0.738001,0.16801 -0.99,0.504 -0.252001,0.33601 -0.378001,0.77701 -0.378,1.323 -1e-6,0.55201 0.125999,0.99601 0.378,1.332 0.251999,0.33001 0.584998,0.49501 0.999,0.495 0.395997,1e-5 0.713997,-0.16499 0.954,-0.495 0.239997,-0.32999 0.359996,-0.76799 0.36,-1.314 -4e-6,-0.56399 -0.120003,-1.01099 -0.36,-1.341 -0.240003,-0.33599 -0.561003,-0.50399 -0.963,-0.504"
       style="font-size:9px;font-family:FreeSans;-inkscape-font-specification:FreeSans"
       id="path4717" />
  </g>
  <rect
     style="fill:#f7f7f7;fill-opacity:1;stroke:#000000;stroke-width:1;stroke-miterlimit:4;stroke-opacity:1;stroke-dasharray:none"
     id="rect4170-0-7-17-1"
     width="190.86238"
     height="26.919729"
     x="4.6532593"
     y="159.03275" />
  <rect
     style="fill:#bdd2e6;fill-opacity:1;stroke:#a2bdd8;stroke-width:1;stroke-miterlimit:4;stroke-opacity:1;stroke-dasharray:none"
     id="rect4172-7-0-6-2"
     width="33.933369"
     height="22.941372"
     x="6.6087646"
     y="161.09061" />
  <rect
     style="fill:#f7f7f7;fill-opacity:1;stroke:#000000;stroke-width:1;stroke-miterlimit:4;stroke-opacity:1;stroke-dasharray:none"
     id="rect4170-0-7-17-5"
     width="190.86238"
     height="26.919729"
     x="4.5489502"
     y="189.02768" />
  <rect
     style="fill:#bdd2e6;fill-opacity:1;stroke:#a2bdd8;stroke-width:1;stroke-miterlimit:4;stroke-opacity:1;stroke-dasharray:none"
     id="rect4172-7-0-6-2-6"
     width="30.225693"
     height="24.000708"
     x="6.0791016"
     y="190.6196" />
  <g
     style="font-size:40px;font-style:normal;font-weight:normal;line-height:125%;letter-spacing:0px;word-spacing:0px;fill:#000000;fill-opacity:1;stroke:none;font-family:FreeSans;-inkscape-font-specification:FreeSans"
     id="text3083-7-9-5-7">
    <path
       d="m 8.6912812,204.72208 c 0.3359966,0 0.6209964,-0.039 0.8550001,-0.117 0.2339958,-0.078 0.4049956,-0.18 0.5129997,-0.306 0.113996,-0.126 0.191996,-0.249 0.234,-0.369 0.048,-0.126 0.07199,-0.258 0.072,-0.396 -5e-6,-0.498 -0.4020041,-0.852 -1.2059998,-1.062 l -1.629,-0.432 c -0.858001,-0.22199 -1.2870006,-0.73199 -1.287,-1.53 -6e-7,-0.59399 0.2069992,-1.06199 0.6210001,-1.404 0.4199983,-0.34799 0.9899977,-0.52199 1.71,-0.522 0.7559962,1e-5 1.3439956,0.18001 1.7639997,0.54 0.419995,0.35401 0.632995,0.85201 0.639,1.494 l -0.792,0 c -0.006,-0.42599 -0.150004,-0.75299 -0.4319997,-0.981 -0.2820039,-0.23399 -0.6840035,-0.35099 -1.206,-0.351 -0.4440025,1e-5 -0.8010022,0.10201 -1.071,0.306 -0.2640016,0.20401 -0.3960015,0.47101 -0.396,0.801 -1.5e-6,0.25201 0.080998,0.45001 0.2429999,0.594 0.1619982,0.14401 0.4409979,0.27001 0.8370001,0.378 l 1.6469999,0.441 c 0.4439958,0.12001 0.7859948,0.32401 1.0259998,0.612 0.245995,0.288 0.368995,0.633 0.369,1.035 -5e-6,0.174 -0.024,0.348 -0.072,0.522 -0.042,0.168 -0.123005,0.345 -0.243,0.531 -0.120005,0.18 -0.273005,0.339 -0.459,0.477 -0.186004,0.138 -0.4350041,0.252 -0.7469997,0.342 -0.3060038,0.09 -0.6540035,0.135 -1.044,0.135 -0.2460028,0 -0.4830026,-0.021 -0.711,-0.063 -0.2220021,-0.036 -0.4500019,-0.105 -0.6840001,-0.207 -0.2340013,-0.108 -0.4350011,-0.243 -0.603,-0.405 -0.1680008,-0.168 -0.3090007,-0.39 -0.423,-0.666 -0.1080004,-0.276 -0.1650004,-0.594 -0.1709999,-0.954 l 0.7919999,0 0,0.045 c -1.2e-6,0.186 0.026999,0.36 0.081,0.522 0.059999,0.162 0.1529986,0.321 0.279,0.477 0.1319983,0.156 0.3239981,0.282 0.576,0.378 0.2579976,0.09 0.5639973,0.135 0.918,0.135"
       style="font-size:9px;font-family:FreeSans;-inkscape-font-specification:FreeSans"
       id="path4720" />
    <path
       d="m 12.165,207.21508 0,-6.678 0.693,0 0,0.711 c 0.353998,-0.56399 0.854998,-0.84599 1.503,-0.846 0.623997,10e-6 1.115996,0.23101 1.476,0.693 0.365995,0.46201 0.548995,1.08901 0.549,1.881 -5e-6,0.75 -0.186005,1.353 -0.558,1.809 -0.366004,0.45 -0.852003,0.675 -1.458,0.675 -0.582002,0 -1.065002,-0.234 -1.449,-0.702 l 0,2.457 -0.756,0 m 2.07,-6.111 c -0.396002,1e-5 -0.714002,0.16801 -0.954,0.504 -0.240001,0.33001 -0.360001,0.77101 -0.36,1.323 -10e-7,0.552 0.119999,0.996 0.36,1.332 0.239998,0.33 0.557998,0.495 0.954,0.495 0.407997,0 0.737997,-0.165 0.99,-0.495 0.251996,-0.336 0.377996,-0.771 0.378,-1.305 -4e-6,-0.56399 -0.126004,-1.01399 -0.378,-1.35 -0.246003,-0.33599 -0.576003,-0.50399 -0.99,-0.504"
       style="font-size:9px;font-family:FreeSans;-inkscape-font-specification:FreeSans"
       id="path4722" />
    <path
       d="m 17.129344,201.93208 c 0.036,-1.01999 0.665999,-1.52999 1.89,-1.53 0.581997,10e-6 1.022996,0.11101 1.323,0.333 0.299996,0.21601 0.449996,0.53401 0.45,0.954 l 0,2.772 c -4e-6,0.246 0.134995,0.369 0.405,0.369 0.054,0 0.107995,-0.006 0.162,-0.018 l 0,0.567 c -0.210005,0.054 -0.381005,0.081 -0.513,0.081 -0.240004,0 -0.423004,-0.057 -0.549,-0.171 -0.120004,-0.108 -0.195004,-0.282 -0.225,-0.522 -0.504003,0.462 -1.038003,0.693 -1.602,0.693 -0.474002,0 -0.852001,-0.126 -1.134,-0.378 -0.276001,-0.252 -0.414001,-0.591 -0.414,-1.017 -10e-7,-0.138 0.012,-0.264 0.036,-0.378 0.03,-0.114 0.06,-0.213 0.09,-0.297 0.036,-0.09 0.096,-0.171 0.18,-0.243 0.084,-0.078 0.152999,-0.141 0.207,-0.189 0.06,-0.048 0.155999,-0.093 0.288,-0.135 0.137999,-0.048 0.242998,-0.081 0.315,-0.099 0.072,-0.024 0.197998,-0.051 0.378,-0.081 0.179998,-0.03 0.311998,-0.051 0.396,-0.063 0.084,-0.012 0.233997,-0.033 0.45,-0.063 0.293997,-0.036 0.497997,-0.093 0.612,-0.171 0.113996,-0.078 0.170996,-0.19499 0.171,-0.351 l 0,-0.198 c -4e-6,-0.22799 -0.093,-0.40199 -0.279,-0.522 -0.180003,-0.11999 -0.438003,-0.17999 -0.774,-0.18 -0.348002,1e-5 -0.612002,0.069 -0.792,0.207 -0.180002,0.13201 -0.285002,0.34201 -0.315,0.63 l -0.756,0 m 1.503,2.871 c 0.413997,0 0.752997,-0.108 1.017,-0.324 0.263996,-0.222 0.395996,-0.459 0.396,-0.711 l 0,-0.846 c -0.150003,0.072 -0.378003,0.132 -0.684,0.18 -0.300003,0.048 -0.561002,0.09 -0.783,0.126 -0.222002,0.036 -0.423002,0.123 -0.603,0.261 -0.180001,0.132 -0.270001,0.318 -0.27,0.558 -1e-6,0.24 0.081,0.426 0.243,0.558 0.161998,0.132 0.389998,0.198 0.684,0.198"
       style="font-size:9px;font-family:FreeSans;-inkscape-font-specification:FreeSans"
       id="path4724" />
    <path
       d="m 22.826062,198.69208 0,3.843 1.998,-1.998 0.963,0 -1.638,1.629 1.926001,3.087 -0.927,0 -1.593001,-2.556 -0.729,0.72 0,1.836 -0.747,0 0,-6.561 0.747,0"
       style="font-size:9px;font-family:FreeSans;-inkscape-font-specification:FreeSans"
       id="path4726" />
    <path
       d="m 30.689109,203.14708 -3.474,0 c 0.012,0.492 0.137999,0.885 0.378,1.179 0.245999,0.294 0.581998,0.441 1.008,0.441 0.611997,0 1.022997,-0.315 1.233,-0.945 l 0.756,0 c -0.096,0.516 -0.321004,0.918 -0.675,1.206 -0.354003,0.288 -0.801003,0.432 -1.341,0.432 -0.660001,0 -1.182001,-0.222 -1.566,-0.666 -0.384,-0.45 -0.576,-1.062 -0.576,-1.836 0,-0.77399 0.195,-1.39199 0.585,-1.854 0.395999,-0.46799 0.920999,-0.70199 1.575,-0.702 1.397997,10e-6 2.096996,0.91501 2.097,2.745 m -3.456,-0.612 2.655,0 c -3e-6,-0.40799 -0.123003,-0.74999 -0.369,-1.026 -0.246003,-0.27599 -0.558002,-0.41399 -0.936,-0.414 -0.378002,1e-5 -0.690001,0.13201 -0.936,0.396 -0.246001,0.25801 -0.384001,0.60601 -0.414,1.044"
       style="font-size:9px;font-family:FreeSans;-inkscape-font-specification:FreeSans"
       id="path4728" />
    <path
       d="m 31.500937,200.53708 0.693,0 0,0.792 c 0.209999,-0.32999 0.434999,-0.56699 0.675,-0.711 0.245998,-0.14399 0.542998,-0.21599 0.891,-0.216 0.455997,10e-6 0.818997,0.11701 1.089,0.351 0.269996,0.23401 0.404996,0.54601 0.405,0.936 l 0,3.564 -0.747,0 0,-3.267 c -3e-6,-0.28199 -0.087,-0.50699 -0.261,-0.675 -0.174003,-0.16799 -0.411002,-0.25199 -0.711,-0.252 -0.384002,1e-5 -0.693001,0.14701 -0.927,0.441 -0.234001,0.28801 -0.351001,0.67201 -0.351,1.152 l 0,2.601 -0.756,0 0,-4.716"
       style="font-size:9px;font-family:FreeSans;-inkscape-font-specification:FreeSans"
       id="path4730" />
  </g>
  <g
     style="font-size:40px;font-style:normal;font-weight:normal;line-height:125%;letter-spacing:0px;word-spacing:0px;fill:#000000;fill-opacity:1;stroke:none;font-family:FreeSans;-inkscape-font-specification:FreeSans"
     id="text3083-7-9-5-7-1">
    <path
       d="m 9.1572847,174.6948 c 0.3359966,0 0.6209963,-0.039 0.8550003,-0.117 0.233996,-0.078 0.404995,-0.18 0.513,-0.306 0.113995,-0.126 0.191995,-0.249 0.234,-0.369 0.048,-0.126 0.07199,-0.258 0.072,-0.396 -5e-6,-0.498 -0.402005,-0.852 -1.2060003,-1.062 l -1.629,-0.432 c -0.8580011,-0.222 -1.2870007,-0.732 -1.287,-1.53 -7e-7,-0.594 0.2069991,-1.06199 0.621,-1.404 0.4199983,-0.34799 0.9899977,-0.52199 1.71,-0.522 0.7559963,1e-5 1.3439953,0.18001 1.7640003,0.54 0.419995,0.35401 0.632994,0.852 0.639,1.494 l -0.792,0 c -0.006,-0.426 -0.150005,-0.753 -0.432,-0.981 -0.2820042,-0.23399 -0.6840038,-0.35099 -1.2060003,-0.351 -0.4440025,1e-5 -0.8010022,0.10201 -1.071,0.306 -0.2640016,0.20401 -0.3960015,0.471 -0.396,0.801 -1.5e-6,0.252 0.080998,0.45 0.243,0.594 0.1619981,0.144 0.4409978,0.27 0.837,0.378 l 1.6470003,0.441 c 0.443995,0.12 0.785995,0.324 1.026,0.612 0.245994,0.288 0.368994,0.633 0.369,1.035 -6e-6,0.174 -0.02401,0.348 -0.072,0.522 -0.04201,0.168 -0.123006,0.345 -0.243,0.531 -0.120005,0.18 -0.273005,0.339 -0.459,0.477 -0.186005,0.138 -0.435005,0.252 -0.747,0.342 -0.3060041,0.09 -0.6540037,0.135 -1.0440003,0.135 -0.2460028,0 -0.4830026,-0.021 -0.711,-0.063 -0.2220021,-0.036 -0.4500019,-0.105 -0.684,-0.207 -0.2340014,-0.108 -0.4350012,-0.243 -0.603,-0.405 -0.1680009,-0.168 -0.3090007,-0.39 -0.423,-0.666 -0.1080005,-0.276 -0.1650005,-0.594 -0.171,-0.954 l 0.792,0 0,0.045 c -1.3e-6,0.186 0.026999,0.36 0.081,0.522 0.059999,0.162 0.1529985,0.321 0.279,0.477 0.1319983,0.156 0.3239981,0.282 0.576,0.378 0.2579975,0.09 0.5639972,0.135 0.918,0.135"
       style="font-size:9px;font-family:FreeSans;-inkscape-font-specification:FreeSans"
       id="path4733" />
    <path
       d="m 14.431003,170.5098 0,0.612 -0.774,0 0,3.231 c -10e-7,0.168 0.027,0.282 0.081,0.342 0.06,0.054 0.170999,0.081 0.333,0.081 0.149998,0 0.269998,-0.012 0.36,-0.036 l 0,0.63 c -0.234002,0.042 -0.438001,0.063 -0.612,0.063 -0.294001,0 -0.519001,-0.066 -0.675,-0.198 -0.156,-0.126 -0.234,-0.309 -0.234,-0.549 l 0,-3.564 -0.639,0 0,-0.612 0.639,0 0,-1.296 0.747,0 0,1.296 0.774,0"
       style="font-size:9px;font-family:FreeSans;-inkscape-font-specification:FreeSans"
       id="path4735" />
    <path
       d="m 17.412675,171.1668 c -0.504002,0.012 -0.882002,0.129 -1.134,0.351 -0.252001,0.222 -0.378001,0.642 -0.378,1.26 l 0,2.448 -0.756,0 0,-4.716 0.693,0 0,0.855 c 0.215999,-0.354 0.422999,-0.606 0.621,-0.756 0.203998,-0.156 0.425998,-0.234 0.666,-0.234 0.066,0 0.161998,0.009 0.288,0.027 l 0,0.765"
       style="font-size:9px;font-family:FreeSans;-inkscape-font-specification:FreeSans"
       id="path4737" />
    <path
       d="m 18.069957,171.9048 c 0.036,-1.02 0.665998,-1.53 1.89,-1.53 0.581997,0 1.022996,0.111 1.323,0.333 0.299996,0.216 0.449995,0.534 0.45,0.954 l 0,2.772 c -5e-6,0.246 0.134995,0.369 0.405,0.369 0.054,0 0.107995,-0.006 0.162,-0.018 l 0,0.567 c -0.210005,0.054 -0.381005,0.081 -0.513,0.081 -0.240004,0 -0.423004,-0.057 -0.549,-0.171 -0.120004,-0.108 -0.195004,-0.282 -0.225,-0.522 -0.504003,0.462 -1.038003,0.693 -1.602,0.693 -0.474002,0 -0.852001,-0.126 -1.134,-0.378 -0.276001,-0.252 -0.414001,-0.591 -0.414,-1.017 -1e-6,-0.138 0.012,-0.264 0.036,-0.378 0.03,-0.114 0.06,-0.213 0.09,-0.297 0.036,-0.09 0.096,-0.171 0.18,-0.243 0.084,-0.078 0.152999,-0.141 0.207,-0.189 0.06,-0.048 0.155999,-0.093 0.288,-0.135 0.137998,-0.048 0.242998,-0.081 0.315,-0.099 0.072,-0.024 0.197998,-0.051 0.378,-0.081 0.179998,-0.03 0.311997,-0.051 0.396,-0.063 0.084,-0.012 0.233997,-0.033 0.45,-0.063 0.293997,-0.036 0.497996,-0.093 0.612,-0.171 0.113996,-0.078 0.170996,-0.195 0.171,-0.351 l 0,-0.198 c -4e-6,-0.228 -0.093,-0.402 -0.279,-0.522 -0.180003,-0.12 -0.438003,-0.18 -0.774,-0.18 -0.348002,0 -0.612002,0.069 -0.792,0.207 -0.180002,0.132 -0.285002,0.342 -0.315,0.63 l -0.756,0 m 1.503,2.871 c 0.413997,0 0.752997,-0.108 1.017,-0.324 0.263996,-0.222 0.395996,-0.459 0.396,-0.711 l 0,-0.846 c -0.150004,0.072 -0.378003,0.132 -0.684,0.18 -0.300003,0.048 -0.561003,0.09 -0.783,0.126 -0.222002,0.036 -0.423002,0.123 -0.603,0.261 -0.180002,0.132 -0.270002,0.318 -0.27,0.558 -2e-6,0.24 0.081,0.426 0.243,0.558 0.161998,0.132 0.389998,0.198 0.684,0.198"
       style="font-size:9px;font-family:FreeSans;-inkscape-font-specification:FreeSans"
       id="path4739" />
    <path
       d="m 22.956675,171.9048 c 0.036,-1.02 0.665999,-1.53 1.89,-1.53 0.581997,0 1.022997,0.111 1.323,0.333 0.299996,0.216 0.449996,0.534 0.45,0.954 l 0,2.772 c -4e-6,0.246 0.134996,0.369 0.405,0.369 0.054,0 0.107996,-0.006 0.162,-0.018 l 0,0.567 c -0.210004,0.054 -0.381004,0.081 -0.513,0.081 -0.240004,0 -0.423003,-0.057 -0.549,-0.171 -0.120003,-0.108 -0.195003,-0.282 -0.225,-0.522 -0.504003,0.462 -1.038002,0.693 -1.602,0.693 -0.474001,0 -0.852001,-0.126 -1.134,-0.378 -0.276,-0.252 -0.414,-0.591 -0.414,-1.017 0,-0.138 0.012,-0.264 0.036,-0.378 0.03,-0.114 0.06,-0.213 0.09,-0.297 0.036,-0.09 0.096,-0.171 0.18,-0.243 0.084,-0.078 0.153,-0.141 0.207,-0.189 0.06,-0.048 0.155999,-0.093 0.288,-0.135 0.137999,-0.048 0.242999,-0.081 0.315,-0.099 0.072,-0.024 0.197999,-0.051 0.378,-0.081 0.179998,-0.03 0.311998,-0.051 0.396,-0.063 0.084,-0.012 0.233998,-0.033 0.45,-0.063 0.293997,-0.036 0.497997,-0.093 0.612,-0.171 0.113997,-0.078 0.170997,-0.195 0.171,-0.351 l 0,-0.198 c -3e-6,-0.228 -0.093,-0.402 -0.279,-0.522 -0.180003,-0.12 -0.438002,-0.18 -0.774,-0.18 -0.348002,0 -0.612001,0.069 -0.792,0.207 -0.180001,0.132 -0.285001,0.342 -0.315,0.63 l -0.756,0 m 1.503,2.871 c 0.413998,0 0.752998,-0.108 1.017,-0.324 0.263997,-0.222 0.395997,-0.459 0.396,-0.711 l 0,-0.846 c -0.150003,0.072 -0.378003,0.132 -0.684,0.18 -0.300002,0.048 -0.561002,0.09 -0.783,0.126 -0.222001,0.036 -0.423001,0.123 -0.603,0.261 -0.180001,0.132 -0.270001,0.318 -0.27,0.558 -1e-6,0.24 0.081,0.426 0.243,0.558 0.161999,0.132 0.389999,0.198 0.684,0.198"
       style="font-size:9px;font-family:FreeSans;-inkscape-font-specification:FreeSans"
       id="path4741" />
    <path
       d="m 28.662394,168.6648 0,6.561 -0.756,0 0,-6.561 0.756,0"
       style="font-size:9px;font-family:FreeSans;-inkscape-font-specification:FreeSans"
       id="path4743" />
  </g>
  <g
     style="font-size:40px;font-style:normal;font-variant:normal;font-weight:normal;font-stretch:normal;line-height:125%;letter-spacing:0px;word-spacing:0px;fill:#000000;fill-opacity:1;stroke:none;font-family:FreeSans;-inkscape-font-specification:FreeSans"
     id="text3083-7-9-5-7-1-0">
    <path
       d="m 7.5391182,146.2955 -0.9,0 -2.358,-6.561 0.9,0 1.926,5.553 1.818,-5.553 0.891,0 -2.277,6.561"
       style="font-size:9px;fill:#000000;font-family:FreeSans;-inkscape-font-specification:FreeSans"
       id="path4783" />
    <path
       d="m 12.340899,141.4445 c 0.677997,1e-5 1.202997,0.22501 1.575,0.675 0.377996,0.44401 0.566996,1.074 0.567,1.89 -4e-6,0.774 -0.192004,1.383 -0.576,1.827 -0.378003,0.444 -0.897003,0.666 -1.557,0.666 -0.672001,0 -1.197001,-0.222 -1.575,-0.666 -0.372,-0.45 -0.558,-1.071 -0.558,-1.863 0,-0.792 0.189,-1.40999 0.567,-1.854 0.377999,-0.44999 0.896999,-0.67499 1.557,-0.675 m 0.009,0.693 c -0.420002,1e-5 -0.750001,0.16501 -0.99,0.495 -0.240001,0.32401 -0.360001,0.771 -0.36,1.341 -10e-7,0.57 0.119999,1.02 0.36,1.35 0.239999,0.324 0.569998,0.486 0.99,0.486 0.413998,0 0.740997,-0.162 0.981,-0.486 0.245997,-0.33 0.368997,-0.771 0.369,-1.323 -3e-6,-0.582 -0.120003,-1.03799 -0.36,-1.368 -0.234003,-0.32999 -0.564002,-0.49499 -0.99,-0.495"
       style="font-size:9px;fill:#000000;font-family:FreeSans;-inkscape-font-specification:FreeSans"
       id="path4785" />
    <path
       d="m 17.553728,142.2365 c -0.504003,0.012 -0.882002,0.12901 -1.134,0.351 -0.252002,0.22201 -0.378002,0.642 -0.378,1.26 l 0,2.448 -0.756,0 0,-4.716 0.693,0 0,0.855 c 0.215998,-0.35399 0.422998,-0.60599 0.621,-0.756 0.203997,-0.15599 0.425997,-0.23399 0.666,-0.234 0.066,1e-5 0.161997,0.009 0.288,0.027 l 0,0.765"
       style="font-size:9px;fill:#000000;font-family:FreeSans;-inkscape-font-specification:FreeSans"
       id="path4787" />
    <path
       d="m 18.274009,141.5795 0.693,0 0,0.666 c 0.203998,-0.28199 0.416998,-0.48599 0.639,-0.612 0.227998,-0.12599 0.497997,-0.18899 0.81,-0.189 0.581997,1e-5 1.004996,0.24001 1.269,0.72 0.221996,-0.26399 0.440995,-0.44999 0.657,-0.558 0.215995,-0.10799 0.479995,-0.16199 0.792,-0.162 0.437994,1e-5 0.773994,0.11401 1.008,0.342 0.239993,0.22201 0.359993,0.54601 0.36,0.972 l 0,3.537 -0.756,0 0,-3.249 c -6e-6,-0.29999 -0.07801,-0.53099 -0.234,-0.693 -0.150006,-0.16799 -0.363006,-0.25199 -0.639,-0.252 -0.306005,1e-5 -0.567005,0.12001 -0.783,0.36 -0.216004,0.24001 -0.324004,0.53101 -0.324,0.873 l 0,2.961 -0.756,0 0,-3.249 c -3e-6,-0.29999 -0.078,-0.53099 -0.234,-0.693 -0.150003,-0.16799 -0.363003,-0.25199 -0.639,-0.252 -0.306002,1e-5 -0.567002,0.12001 -0.783,0.36 -0.216002,0.24001 -0.324002,0.53101 -0.324,0.873 l 0,2.961 -0.756,0 0,-4.716"
       style="font-size:9px;fill:#000000;font-family:FreeSans;-inkscape-font-specification:FreeSans"
       id="path4789" />
    <path
       d="m 26.702509,145.3595 0,0.936 -0.936,0 0,-0.936 0.936,0 m 0,-3.78 0,0.936 -0.936,0 0,-0.936 0.936,0"
       style="font-size:9px;fill:#000000;font-family:FreeSans;-inkscape-font-specification:FreeSans"
       id="path4791" />
  </g>
  <path
     sodipodi:type="arc"
     style="fill:#000000;fill-opacity:1;stroke:none"
     id="path3271"
     sodipodi:cx="685.17914"
     sodipodi:cy="553.42017"
     sodipodi:rx="10.423452"
     sodipodi:ry="10.423452"
     d="m 695.60259,553.42017 a 10.423452,10.423452 0 1 1 -20.8469,0 10.423452,10.423452 0 1 1 20.8469,0 z"
     transform="matrix(0.60156248,0,0,0.60156248,-368.04069,-189.3449)" />
  <rect
     style="fill:#000000;fill-opacity:1;stroke:none"
     id="rect3277"
     width="10.95785"
     height="10.95785"
     x="163.41307"
     y="24.860735"
     transform="matrix(0.69364171,0.72032019,-0.69364171,0.72032019,0,0)" />
  <rect
     style="fill:url(#radialGradient3295);fill-opacity:1;stroke:#777777;stroke-width:1.04390085;stroke-opacity:1"
     id="rect3279"
     width="23.219221"
     height="23.334385"
     x="58.374756"
     y="131.74527"
     rx="2.6503878"
     ry="3.2234809" />
  <rect
     style="fill:#000000;fill-opacity:1;stroke:none"
     id="rect3273"
     width="9.9348536"
     height="9.9348536"
     x="65.065735"
     y="138.5231" />
  <rect
     style="fill:#cccccc;fill-opacity:1;stroke:none"
     id="rect4145"
     width="189.38763"
     height="96.995453"
     x="5.5005493"
     y="30.080566" />
  <rect
     style="fill:#ffffff;fill-opacity:1;stroke:none"
     id="rect4121"
     width="188.40826"
     height="96.277077"
     x="5.8380737"
     y="30.494232" />
  <path
     style="fill:url(#radialGradient4075);fill-opacity:1;stroke:none"
     d="m 101.54782,80.828827 1.62866,40.390883 -25.081425,-8.14332 19.8697,-32.899023 -37.13355,14.33225 0,-27.03583 37.45929,10.42345 -27.49995,-33.12269 24.41477,-11.97705 5.527865,44.22296 23.26312,-37.77378 17.73525,22.57214 -38.00411,16.81394 39.15575,10.36476 -14.74099,23.263123 z"
     id="path3299"
     inkscape:connector-curvature="0" />
  <path
     style="fill:#8099ff;fill-opacity:1;stroke:none"
     d="m 186.71965,126.88239 7.70067,-7.70068 0,7.7483 z"
     id="path4108"
     inkscape:connector-curvature="0" />
  <path
     style="fill:#000000;fill-opacity:1;stroke:none"
     d="m 190.06573,120.52634 0,2 -2,0 0,0.9375 2,0 0,2.09375 1,0 0,-2.09375 2,0 0,-0.9375 -2,0 0,-2 -1,0 z"
     id="rect4101"
     inkscape:connector-curvature="0" />
  <rect
     style="fill:#f7f7f7;fill-opacity:1;stroke:#888888;stroke-width:1.03569925;stroke-miterlimit:4;stroke-opacity:1;stroke-dasharray:none"
     id="rect4168"
     width="187.93268"
     height="18.968594"
     x="6.8082886"
     y="6.0303955"
     rx="1.9996202"
     ry="2.1457536" />
  <g
     style="font-size:40px;font-style:normal;font-variant:normal;font-weight:normal;font-stretch:normal;line-height:125%;letter-spacing:0px;word-spacing:0px;fill:#000000;fill-opacity:1;stroke:none;font-family:FreeSans;-inkscape-font-specification:FreeSans"
     id="text3083-7-9-5-7-1-4">
    <path
       d="m 14.177148,11.666661 0,6.561 -0.945,0 -3.3929996,-5.319 0,5.319 -0.792,0 0,-6.561 0.909,0 3.4289996,5.364 0,-5.364 0.792,0"
       style="font-size:9px;font-family:FreeSans;-inkscape-font-specification:FreeSans"
       id="path5005" />
    <path
       d="m 15.378367,14.906661 c 0.036,-1.019996 0.665999,-1.529995 1.89,-1.53 0.581997,5e-6 1.022997,0.111005 1.323,0.333 0.299996,0.216004 0.449996,0.534004 0.45,0.954 l 0,2.772 c -4e-6,0.246001 0.134996,0.369001 0.405,0.369 0.054,1e-6 0.107996,-0.006 0.162,-0.018 l 0,0.567 c -0.210004,0.054 -0.381004,0.081 -0.513,0.081 -0.240004,0 -0.423004,-0.057 -0.549,-0.171 -0.120003,-0.108 -0.195003,-0.282 -0.225,-0.522 -0.504003,0.462 -1.038002,0.693 -1.602,0.693 -0.474001,0 -0.852001,-0.126 -1.134,-0.378 -0.276,-0.251999 -0.414,-0.590999 -0.414,-1.017 0,-0.137999 0.012,-0.263998 0.036,-0.378 0.03,-0.113998 0.06,-0.212998 0.09,-0.297 0.036,-0.09 0.096,-0.170998 0.18,-0.243 0.084,-0.078 0.152999,-0.140998 0.207,-0.189 0.06,-0.048 0.155999,-0.093 0.288,-0.135 0.137999,-0.048 0.242999,-0.081 0.315,-0.099 0.072,-0.024 0.197999,-0.051 0.378,-0.081 0.179998,-0.03 0.311998,-0.051 0.396,-0.063 0.084,-0.012 0.233998,-0.033 0.45,-0.063 0.293997,-0.036 0.497997,-0.093 0.612,-0.171 0.113997,-0.078 0.170997,-0.194997 0.171,-0.351 l 0,-0.198 c -3e-6,-0.227996 -0.093,-0.401996 -0.279,-0.522 -0.180003,-0.119996 -0.438002,-0.179996 -0.774,-0.18 -0.348002,4e-6 -0.612002,0.069 -0.792,0.207 -0.180001,0.132004 -0.285001,0.342004 -0.315,0.63 l -0.756,0 m 1.503,2.871 c 0.413998,1e-6 0.752997,-0.107999 1.017,-0.324 0.263997,-0.221999 0.395997,-0.458999 0.396,-0.711 l 0,-0.846 c -0.150003,0.072 -0.378003,0.132002 -0.684,0.18 -0.300002,0.048 -0.561002,0.09 -0.783,0.126 -0.222002,0.036 -0.423001,0.123002 -0.603,0.261 -0.180001,0.132002 -0.270001,0.318002 -0.27,0.558 -10e-7,0.240001 0.081,0.426001 0.243,0.558 0.161999,0.132001 0.389999,0.198001 0.684,0.198"
       style="font-size:9px;font-family:FreeSans;-inkscape-font-specification:FreeSans"
       id="path5007" />
    <path
       d="m 20.265086,14.906661 c 0.036,-1.019996 0.665999,-1.529995 1.89,-1.53 0.581997,5e-6 1.022997,0.111005 1.323,0.333 0.299996,0.216004 0.449996,0.534004 0.45,0.954 l 0,2.772 c -4e-6,0.246001 0.134996,0.369001 0.405,0.369 0.05399,1e-6 0.107995,-0.006 0.162,-0.018 l 0,0.567 c -0.210005,0.054 -0.381004,0.081 -0.513,0.081 -0.240004,0 -0.423004,-0.057 -0.549,-0.171 -0.120004,-0.108 -0.195004,-0.282 -0.225,-0.522 -0.504003,0.462 -1.038002,0.693 -1.602,0.693 -0.474001,0 -0.852001,-0.126 -1.134,-0.378 -0.276,-0.251999 -0.414,-0.590999 -0.414,-1.017 0,-0.137999 0.012,-0.263998 0.036,-0.378 0.03,-0.113998 0.06,-0.212998 0.09,-0.297 0.036,-0.09 0.096,-0.170998 0.18,-0.243 0.084,-0.078 0.152999,-0.140998 0.207,-0.189 0.06,-0.048 0.155999,-0.093 0.288,-0.135 0.137999,-0.048 0.242999,-0.081 0.315,-0.099 0.072,-0.024 0.197998,-0.051 0.378,-0.081 0.179998,-0.03 0.311998,-0.051 0.396,-0.063 0.084,-0.012 0.233998,-0.033 0.45,-0.063 0.293997,-0.036 0.497997,-0.093 0.612,-0.171 0.113997,-0.078 0.170997,-0.194997 0.171,-0.351 l 0,-0.198 c -3e-6,-0.227996 -0.093,-0.401996 -0.279,-0.522 -0.180003,-0.119996 -0.438003,-0.179996 -0.774,-0.18 -0.348002,4e-6 -0.612002,0.069 -0.792,0.207 -0.180001,0.132004 -0.285001,0.342004 -0.315,0.63 l -0.756,0 m 1.503,2.871 c 0.413998,1e-6 0.752997,-0.107999 1.017,-0.324 0.263997,-0.221999 0.395997,-0.458999 0.396,-0.711 l 0,-0.846 c -0.150003,0.072 -0.378003,0.132002 -0.684,0.18 -0.300002,0.048 -0.561002,0.09 -0.783,0.126 -0.222002,0.036 -0.423002,0.123002 -0.603,0.261 -0.180001,0.132002 -0.270001,0.318002 -0.27,0.558 -1e-6,0.240001 0.081,0.426001 0.243,0.558 0.161998,0.132001 0.389998,0.198001 0.684,0.198"
       style="font-size:9px;font-family:FreeSans;-inkscape-font-specification:FreeSans"
       id="path5009" />
    <path
       d="m 25.214805,13.511661 0.693,0 0,0.666 c 0.203998,-0.281996 0.416998,-0.485995 0.639,-0.612 0.227998,-0.125995 0.497997,-0.188995 0.81,-0.189 0.581996,5e-6 1.004996,0.240005 1.269,0.72 0.221996,-0.263995 0.440995,-0.449995 0.657,-0.558 0.215995,-0.107995 0.479995,-0.161995 0.792,-0.162 0.437994,5e-6 0.773994,0.114005 1.008,0.342 0.239993,0.222004 0.359993,0.546004 0.36,0.972 l 0,3.537 -0.756,0 0,-3.249 c -6e-6,-0.299996 -0.07801,-0.530996 -0.234,-0.693 -0.150006,-0.167996 -0.363006,-0.251996 -0.639,-0.252 -0.306005,4e-6 -0.567005,0.120004 -0.783,0.36 -0.216004,0.240004 -0.324004,0.531003 -0.324,0.873 l 0,2.961 -0.756,0 0,-3.249 c -4e-6,-0.299996 -0.078,-0.530996 -0.234,-0.693 -0.150003,-0.167996 -0.363003,-0.251996 -0.639,-0.252 -0.306002,4e-6 -0.567002,0.120004 -0.783,0.36 -0.216002,0.240004 -0.324002,0.531003 -0.324,0.873 l 0,2.961 -0.756,0 0,-4.716"
       style="font-size:9px;font-family:FreeSans;-inkscape-font-specification:FreeSans"
       id="path5011" />
    <path
       d="m 33.283305,11.666661 0,6.561 -0.756,0 0,-6.561 0.756,0"
       style="font-size:9px;font-family:FreeSans;-inkscape-font-specification:FreeSans"
       id="path5013" />
    <path
       d="m 36.314898,13.376661 c 0.677997,5e-6 1.202997,0.225005 1.575,0.675 0.377996,0.444004 0.566996,1.074003 0.567,1.89 -4e-6,0.774002 -0.192004,1.383001 -0.576,1.827 -0.378003,0.444 -0.897003,0.666 -1.557,0.666 -0.672001,0 -1.197001,-0.222 -1.575,-0.666 -0.372,-0.449999 -0.558,-1.070998 -0.558,-1.863 0,-0.791997 0.189,-1.409996 0.567,-1.854 0.377999,-0.449995 0.896999,-0.674995 1.557,-0.675 m 0.009,0.693 c -0.420002,4e-6 -0.750001,0.165004 -0.99,0.495 -0.240001,0.324003 -0.360001,0.771003 -0.36,1.341 -10e-7,0.570002 0.119999,1.020001 0.36,1.35 0.239999,0.324001 0.569998,0.486001 0.99,0.486 0.413998,1e-6 0.740997,-0.161999 0.981,-0.486 0.245997,-0.329999 0.368997,-0.770998 0.369,-1.323 -3e-6,-0.581997 -0.120003,-1.037997 -0.36,-1.368 -0.234003,-0.329996 -0.564002,-0.494996 -0.99,-0.495"
       style="font-size:9px;font-family:FreeSans;-inkscape-font-specification:FreeSans"
       id="path5015" />
    <path
       d="m 41.113727,13.376661 c 0.677996,5e-6 1.202996,0.225005 1.575,0.675 0.377995,0.444004 0.566995,1.074003 0.567,1.89 -5e-6,0.774002 -0.192005,1.383001 -0.576,1.827 -0.378004,0.444 -0.897004,0.666 -1.557,0.666 -0.672002,0 -1.197002,-0.222 -1.575,-0.666 -0.372001,-0.449999 -0.558001,-1.070998 -0.558,-1.863 -1e-6,-0.791997 0.188999,-1.409996 0.567,-1.854 0.377998,-0.449995 0.896998,-0.674995 1.557,-0.675 m 0.009,0.693 c -0.420002,4e-6 -0.750002,0.165004 -0.99,0.495 -0.240002,0.324003 -0.360001,0.771003 -0.36,1.341 -1e-6,0.570002 0.119998,1.020001 0.36,1.35 0.239998,0.324001 0.569998,0.486001 0.99,0.486 0.413997,1e-6 0.740996,-0.161999 0.981,-0.486 0.245996,-0.329999 0.368996,-0.770998 0.369,-1.323 -4e-6,-0.581997 -0.120004,-1.037997 -0.36,-1.368 -0.234004,-0.329996 -0.564003,-0.494996 -0.99,-0.495"
       style="font-size:9px;font-family:FreeSans;-inkscape-font-specification:FreeSans"
       id="path5017" />
    <path
       d="m 44.616555,16.823661 c 0.036,0.282001 0.131998,0.507001 0.288,0.675 0.161998,0.162001 0.449998,0.243001 0.864,0.243 0.329997,1e-6 0.593997,-0.066 0.792,-0.198 0.203996,-0.137999 0.305996,-0.317999 0.306,-0.54 -4e-6,-0.173998 -0.057,-0.311998 -0.171,-0.414 -0.114003,-0.101998 -0.300003,-0.182998 -0.558,-0.243 l -0.702,-0.171 c -0.558002,-0.131998 -0.948001,-0.296998 -1.17,-0.495 -0.216001,-0.203997 -0.324001,-0.491997 -0.324,-0.864 -1e-6,-0.437996 0.164999,-0.785996 0.495,-1.044 0.329998,-0.263995 0.767998,-0.395995 1.314,-0.396 0.545997,5e-6 0.965996,0.126005 1.26,0.378 0.293996,0.252004 0.443996,0.609004 0.45,1.071 l -0.792,0 c -0.018,-0.503996 -0.333003,-0.755996 -0.945,-0.756 -0.306002,4e-6 -0.549002,0.066 -0.729,0.198 -0.180002,0.126004 -0.270002,0.297004 -0.27,0.513 -2e-6,0.168003 0.069,0.306003 0.207,0.414 0.137998,0.102003 0.359998,0.189003 0.666,0.261 l 0.72,0.171 c 0.467996,0.114003 0.806996,0.276002 1.017,0.486 0.209996,0.204002 0.314996,0.480002 0.315,0.828 -4e-6,0.456001 -0.177004,0.819001 -0.531,1.089 -0.348004,0.27 -0.819003,0.405 -1.413,0.405 -1.218001,0 -1.845001,-0.537 -1.881,-1.611 l 0.792,0"
       style="font-size:9px;font-family:FreeSans;-inkscape-font-specification:FreeSans"
       id="path5019" />
  </g>
  <rect
     style="fill:#f7f7f7;fill-opacity:1;stroke:#000000;stroke-width:1;stroke-miterlimit:4;stroke-opacity:1;stroke-dasharray:none"
     id="rect4170"
     width="191.39554"
     height="26.658384"
     x="4.4519043"
     y="309.06979" />
  <rect
     style="fill:#bdd2e6;fill-opacity:1;stroke:#a2bdd8;stroke-width:1;stroke-miterlimit:4;stroke-opacity:1;stroke-dasharray:none"
     id="rect4172"
     width="39.826221"
     height="21.661428"
     x="7.0439453"
     y="311.47458" />
  <g
     style="font-size:40px;font-style:normal;font-weight:normal;line-height:125%;letter-spacing:0px;word-spacing:0px;fill:#000000;fill-opacity:1;stroke:none;font-family:FreeSans;-inkscape-font-specification:FreeSans"
     id="text3083">
    <path
       d="m 7.9322832,319.53171 0,5.823 -0.837,0 0,-5.823 -2.16,0 0,-0.738 5.1479998,0 0,0.738 -2.1509998,0"
       style="font-size:9px;font-family:FreeSans;-inkscape-font-specification:FreeSans"
       id="path4648" />
    <path
       d="m 14.653596,325.35471 -0.675,0 0,-0.657 c -0.222004,0.312 -0.453003,0.534 -0.693,0.666 -0.240003,0.132 -0.534003,0.198 -0.882,0.198 -0.456002,0 -0.822002,-0.117 -1.098,-0.351 -0.270001,-0.234 -0.405001,-0.546 -0.405,-0.936 l 0,-3.636 0.747,0 0,3.339 c -2e-6,0.282 0.087,0.507 0.261,0.675 0.173998,0.168 0.410998,0.252 0.711,0.252 0.389997,0 0.701997,-0.144 0.936,-0.432 0.233996,-0.294 0.350996,-0.681 0.351,-1.161 l 0,-2.673 0.747,0 0,4.716"
       style="font-size:9px;font-family:FreeSans;-inkscape-font-specification:FreeSans"
       id="path4650" />
    <path
       d="m 16.29258,323.95071 c 0.036,0.282 0.131999,0.507 0.288,0.675 0.161999,0.162 0.449998,0.243 0.864,0.243 0.329997,0 0.593997,-0.066 0.792,-0.198 0.203997,-0.138 0.305997,-0.318 0.306,-0.54 -3e-6,-0.174 -0.057,-0.312 -0.171,-0.414 -0.114003,-0.102 -0.300003,-0.183 -0.558,-0.243 l -0.702,-0.171 c -0.558001,-0.132 -0.948001,-0.297 -1.17,-0.495 -0.216,-0.204 -0.324,-0.492 -0.324,-0.864 0,-0.438 0.164999,-0.786 0.495,-1.044 0.329999,-0.264 0.767998,-0.396 1.314,-0.396 0.545997,0 0.965997,0.126 1.26,0.378 0.293996,0.252 0.443996,0.609 0.45,1.071 l -0.792,0 c -0.018,-0.504 -0.333003,-0.756 -0.945,-0.756 -0.306002,0 -0.549002,0.066 -0.729,0.198 -0.180001,0.126 -0.270001,0.297 -0.27,0.513 -1e-6,0.168 0.069,0.306 0.207,0.414 0.137999,0.102 0.359998,0.189 0.666,0.261 l 0.72,0.171 c 0.467997,0.114 0.806996,0.276 1.017,0.486 0.209996,0.204 0.314996,0.48 0.315,0.828 -4e-6,0.456 -0.177004,0.819 -0.531,1.089 -0.348003,0.27 -0.819003,0.405 -1.413,0.405 -1.218001,0 -1.845,-0.537 -1.881,-1.611 l 0.792,0"
       style="font-size:9px;font-family:FreeSans;-inkscape-font-specification:FreeSans"
       id="path4652" />
    <path
       d="m 20.722268,323.95071 c 0.036,0.282 0.131998,0.507 0.288,0.675 0.161998,0.162 0.449998,0.243 0.864,0.243 0.329997,0 0.593997,-0.066 0.792,-0.198 0.203996,-0.138 0.305996,-0.318 0.306,-0.54 -4e-6,-0.174 -0.057,-0.312 -0.171,-0.414 -0.114003,-0.102 -0.300003,-0.183 -0.558,-0.243 l -0.702,-0.171 c -0.558002,-0.132 -0.948001,-0.297 -1.17,-0.495 -0.216001,-0.204 -0.324001,-0.492 -0.324,-0.864 -10e-7,-0.438 0.164999,-0.786 0.495,-1.044 0.329998,-0.264 0.767998,-0.396 1.314,-0.396 0.545997,0 0.965996,0.126 1.26,0.378 0.293996,0.252 0.443996,0.609 0.45,1.071 l -0.792,0 c -0.018,-0.504 -0.333003,-0.756 -0.945,-0.756 -0.306002,0 -0.549002,0.066 -0.729,0.198 -0.180002,0.126 -0.270002,0.297 -0.27,0.513 -2e-6,0.168 0.069,0.306 0.207,0.414 0.137998,0.102 0.359998,0.189 0.666,0.261 l 0.72,0.171 c 0.467996,0.114 0.806996,0.276 1.017,0.486 0.209996,0.204 0.314995,0.48 0.315,0.828 -5e-6,0.456 -0.177004,0.819 -0.531,1.089 -0.348004,0.27 -0.819003,0.405 -1.413,0.405 -1.218001,0 -1.845001,-0.537 -1.881,-1.611 l 0.792,0"
       style="font-size:9px;font-family:FreeSans;-inkscape-font-specification:FreeSans"
       id="path4654" />
    <path
       d="m 28.580955,323.24871 -3.474,0 c 0.012,0.492 0.137999,0.885 0.378,1.179 0.245998,0.294 0.581998,0.441 1.008,0.441 0.611997,0 1.022997,-0.315 1.233,-0.945 l 0.756,0 c -0.096,0.516 -0.321004,0.918 -0.675,1.206 -0.354003,0.288 -0.801003,0.432 -1.341,0.432 -0.660002,0 -1.182001,-0.222 -1.566,-0.666 -0.384,-0.45 -0.576,-1.062 -0.576,-1.836 0,-0.774 0.195,-1.392 0.585,-1.854 0.395999,-0.468 0.920998,-0.702 1.575,-0.702 1.397996,0 2.096996,0.915 2.097,2.745 m -3.456,-0.612 2.655,0 c -4e-6,-0.408 -0.123004,-0.75 -0.369,-1.026 -0.246003,-0.276 -0.558003,-0.414 -0.936,-0.414 -0.378002,0 -0.690002,0.132 -0.936,0.396 -0.246001,0.258 -0.384001,0.606 -0.414,1.044"
       style="font-size:9px;font-family:FreeSans;-inkscape-font-specification:FreeSans"
       id="path4656" />
    <path
       d="m 29.392783,320.63871 0.693,0 0,0.792 c 0.209999,-0.33 0.434999,-0.567 0.675,-0.711 0.245998,-0.144 0.542998,-0.216 0.891,-0.216 0.455997,0 0.818997,0.117 1.089,0.351 0.269996,0.234 0.404996,0.546 0.405,0.936 l 0,3.564 -0.747,0 0,-3.267 c -3e-6,-0.282 -0.087,-0.507 -0.261,-0.675 -0.174003,-0.168 -0.411003,-0.252 -0.711,-0.252 -0.384002,0 -0.693002,0.147 -0.927,0.441 -0.234001,0.288 -0.351001,0.672 -0.351,1.152 l 0,2.601 -0.756,0 0,-4.716"
       style="font-size:9px;font-family:FreeSans;-inkscape-font-specification:FreeSans"
       id="path4658" />
    <path
       d="m 36.494768,321.29571 c -0.504003,0.012 -0.882002,0.129 -1.134,0.351 -0.252002,0.222 -0.378002,0.642 -0.378,1.26 l 0,2.448 -0.756,0 0,-4.716 0.693,0 0,0.855 c 0.215998,-0.354 0.422998,-0.606 0.621,-0.756 0.203998,-0.156 0.425997,-0.234 0.666,-0.234 0.066,0 0.161997,0.009 0.288,0.027 l 0,0.765"
       style="font-size:9px;font-family:FreeSans;-inkscape-font-specification:FreeSans"
       id="path4660" />
    <path
       d="m 40.968049,325.35471 -0.675,0 0,-0.657 c -0.222004,0.312 -0.453003,0.534 -0.693,0.666 -0.240003,0.132 -0.534003,0.198 -0.882,0.198 -0.456002,0 -0.822001,-0.117 -1.098,-0.351 -0.270001,-0.234 -0.405001,-0.546 -0.405,-0.936 l 0,-3.636 0.747,0 0,3.339 c -10e-7,0.282 0.087,0.507 0.261,0.675 0.173998,0.168 0.410998,0.252 0.711,0.252 0.389997,0 0.701997,-0.144 0.936,-0.432 0.233996,-0.294 0.350996,-0.681 0.351,-1.161 l 0,-2.673 0.747,0 0,4.716"
       style="font-size:9px;font-family:FreeSans;-inkscape-font-specification:FreeSans"
       id="path4662" />
    <path
       d="m 42.859033,320.63871 0,4.716 -0.747,0 0,-4.716 0.747,0 m 0,-1.845 0,0.945 -0.756,0 0,-0.945 0.756,0"
       style="font-size:9px;font-family:FreeSans;-inkscape-font-specification:FreeSans"
       id="path4664" />
    <path
       d="m 44.052939,320.63871 0.693,0 0,0.666 c 0.203999,-0.282 0.416999,-0.486 0.639,-0.612 0.227998,-0.126 0.497998,-0.189 0.81,-0.189 0.581997,0 1.004997,0.24 1.269,0.72 0.221996,-0.264 0.440996,-0.45 0.657,-0.558 0.215996,-0.108 0.479995,-0.162 0.792,-0.162 0.437995,0 0.773994,0.114 1.008,0.342 0.239994,0.222 0.359994,0.546 0.36,0.972 l 0,3.537 -0.756,0 0,-3.249 c -6e-6,-0.3 -0.07801,-0.531 -0.234,-0.693 -0.150005,-0.168 -0.363005,-0.252 -0.639,-0.252 -0.306004,0 -0.567004,0.12 -0.783,0.36 -0.216004,0.24 -0.324004,0.531 -0.324,0.873 l 0,2.961 -0.756,0 0,-3.249 c -3e-6,-0.3 -0.078,-0.531 -0.234,-0.693 -0.150002,-0.168 -0.363002,-0.252 -0.639,-0.252 -0.306002,0 -0.567001,0.12 -0.783,0.36 -0.216001,0.24 -0.324001,0.531 -0.324,0.873 l 0,2.961 -0.756,0 0,-4.716"
       style="font-size:9px;font-family:FreeSans;-inkscape-font-specification:FreeSans"
       id="path4666" />
    <path
       d="m 53.165439,320.63871 0,0.612 -0.774,0 0,3.231 c -10e-7,0.168 0.027,0.282 0.081,0.342 0.06,0.054 0.170999,0.081 0.333,0.081 0.149998,0 0.269998,-0.012 0.36,-0.036 l 0,0.63 c -0.234002,0.042 -0.438001,0.063 -0.612,0.063 -0.294001,0 -0.519001,-0.066 -0.675,-0.198 -0.156,-0.126 -0.234,-0.309 -0.234,-0.549 l 0,-3.564 -0.639,0 0,-0.612 0.639,0 0,-1.296 0.747,0 0,1.296 0.774,0"
       style="font-size:9px;font-family:FreeSans;-inkscape-font-specification:FreeSans"
       id="path4668" />
    <path
       d="m 57.866111,323.24871 -3.474,0 c 0.012,0.492 0.137999,0.885 0.378,1.179 0.245999,0.294 0.581998,0.441 1.008,0.441 0.611997,0 1.022997,-0.315 1.233,-0.945 l 0.756,0 c -0.096,0.516 -0.321004,0.918 -0.675,1.206 -0.354003,0.288 -0.801003,0.432 -1.341,0.432 -0.660001,0 -1.182001,-0.222 -1.566,-0.666 -0.384,-0.45 -0.576,-1.062 -0.576,-1.836 0,-0.774 0.195,-1.392 0.585,-1.854 0.395999,-0.468 0.920999,-0.702 1.575,-0.702 1.397997,0 2.096996,0.915 2.097,2.745 m -3.456,-0.612 2.655,0 c -3e-6,-0.408 -0.123003,-0.75 -0.369,-1.026 -0.246003,-0.276 -0.558002,-0.414 -0.936,-0.414 -0.378002,0 -0.690001,0.132 -0.936,0.396 -0.246001,0.258 -0.384001,0.606 -0.414,1.044"
       style="font-size:9px;font-family:FreeSans;-inkscape-font-specification:FreeSans"
       id="path4670" />
  </g>
  <g
     style="font-size:9px;font-style:normal;font-variant:normal;font-weight:normal;font-stretch:normal;line-height:125%;letter-spacing:0px;word-spacing:0px;fill:#000000;fill-opacity:1;stroke:none;font-family:FreeSans;-inkscape-font-specification:FreeSans"
     id="text4205">
    <path
       d="m 167.93983,323.70807 -2.691,0 0,-0.837 2.898,-4.014 0.585,0 0,4.14 0.945,0 0,0.711 -0.945,0 0,1.53 -0.792,0 0,-1.53 m 0,-0.711 0,-2.79 -1.998,2.79 1.998,0"
       style="font-family:FreeSans;-inkscape-font-specification:FreeSans"
       id="path4794" />
    <path
       d="m 174.68659,318.85707 0,0.666 c -0.72,0.96 -1.29,1.899 -1.71,2.817 -0.414,0.912 -0.708,1.878 -0.882,2.898 l -0.846,0 c 0.24,-1.05 0.546,-1.974 0.918,-2.772 0.372,-0.798 0.939,-1.74 1.701,-2.826 l -3.447,0 0,-0.783 4.266,0"
       style="font-family:FreeSans;-inkscape-font-specification:FreeSans"
       id="path4796" />
    <path
       d="m 175.79936,324.30207 0.945,0 0,1.08 c 0,0.786 -0.315,1.179 -0.945,1.179 l 0,-0.342 c 0.174,-0.012 0.297,-0.075 0.369,-0.189 0.072,-0.114 0.108,-0.324 0.108,-0.63 l 0,-0.162 -0.477,0 0,-0.936"
       style="font-family:FreeSans;-inkscape-font-specification:FreeSans"
       id="path4798" />
    <path
       d="m 180.45545,323.70807 -2.691,0 0,-0.837 2.898,-4.014 0.585,0 0,4.14 0.945,0 0,0.711 -0.945,0 0,1.53 -0.792,0 0,-1.53 m 0,-0.711 0,-2.79 -1.998,2.79 1.998,0"
       style="font-family:FreeSans;-inkscape-font-specification:FreeSans"
       id="path4800" />
  </g>
  <rect
     style="fill:#d4d4d4;fill-opacity:1;stroke:none"
     id="rect4229"
     width="9.0705643"
     height="23.901268"
     x="185.05798"
     y="310.60599" />
  <path
     style="fill:#4d4d4d;fill-opacity:1;stroke:none"
     d="m 186.77943,318.4186 2.77291,-5.14232 2.8468,5.27936 z"
     id="path4209"
     inkscape:connector-curvature="0" />
  <path
     style="fill:#4d4d4d;fill-opacity:1;stroke:none"
     d="m 186.59094,325.50665 2.9302,5.43402 3.00829,-5.57884 z"
     id="path4209-6"
     inkscape:connector-curvature="0" />
  <g
     style="font-size:9px;font-style:normal;font-variant:normal;font-weight:normal;font-stretch:normal;line-height:125%;letter-spacing:0px;word-spacing:0px;fill:#000000;fill-opacity:1;stroke:none;font-family:FreeSans;-inkscape-font-specification:FreeSans"
     id="text4205-7">
    <path
       d="m 161.38001,290.82417 -1.413,0 0,-0.567 c 0.612,-0.078 1.011,-0.18599 1.197,-0.324 0.186,-0.13799 0.348,-0.45299 0.486,-0.945 l 0.522,0 0,6.381 -0.792,0 0,-4.545"
       style="text-align:end;text-anchor:end;font-family:FreeSans;-inkscape-font-specification:FreeSans"
       id="path4803" />
    <path
       d="m 166.38978,290.82417 -1.413,0 0,-0.567 c 0.612,-0.078 1.01099,-0.18599 1.197,-0.324 0.18599,-0.13799 0.34799,-0.45299 0.486,-0.945 l 0.522,0 0,6.381 -0.792,0 0,-4.545"
       style="text-align:end;text-anchor:end;font-family:FreeSans;-inkscape-font-specification:FreeSans"
       id="path4805" />
    <path
       d="m 169.51854,291.20217 c 0.042,-1.47599 0.744,-2.21399 2.106,-2.214 0.606,10e-6 1.098,0.17401 1.476,0.522 0.378,0.34801 0.567,0.79801 0.567,1.35 0,0.792 -0.45,1.434 -1.35,1.926 l -0.9,0.486 c -0.39,0.21 -0.669,0.414 -0.837,0.612 -0.168,0.198 -0.273,0.432 -0.315,0.702 l 3.357,0 0,0.783 -4.248,0 c 0.036,-0.702 0.177,-1.242 0.423,-1.62 0.246,-0.384 0.702,-0.765 1.368,-1.143 l 0.828,-0.468 c 0.576,-0.33 0.864,-0.74999 0.864,-1.26 0,-0.34199 -0.12,-0.62699 -0.36,-0.855 -0.24,-0.22799 -0.54,-0.34199 -0.9,-0.342 -0.798,10e-6 -1.227,0.50701 -1.287,1.521 l -0.792,0"
       style="text-align:end;text-anchor:end;font-family:FreeSans;-inkscape-font-specification:FreeSans"
       id="path4807" />
    <path
       d="m 174.86131,294.43317 0.945,0 0,1.08 c 0,0.786 -0.315,1.179 -0.945,1.179 l 0,-0.342 c 0.174,-0.012 0.297,-0.075 0.369,-0.189 0.072,-0.114 0.108,-0.324 0.108,-0.63 l 0,-0.162 -0.477,0 0,-0.936"
       style="text-align:end;text-anchor:end;font-family:FreeSans;-inkscape-font-specification:FreeSans"
       id="path4809" />
    <path
       d="m 179.0044,289.68117 c -0.456,10e-6 -0.771,0.12601 -0.945,0.378 -0.168,0.24601 -0.258,0.57601 -0.27,0.99 l -0.792,0 c 0.03,-1.37399 0.696,-2.06099 1.998,-2.061 0.606,10e-6 1.08,0.15601 1.422,0.468 0.348,0.31201 0.522,0.74101 0.522,1.287 0,0.64801 -0.297,1.089 -0.891,1.323 0.384,0.132 0.66,0.318 0.828,0.558 0.168,0.234 0.252,0.555 0.252,0.963 0,0.606 -0.198,1.089 -0.594,1.449 -0.39,0.36 -0.912,0.54 -1.566,0.54 -1.308,0 -2.01,-0.687 -2.106,-2.061 l 0.792,0 c 0.03,0.462 0.153,0.804 0.369,1.026 0.216,0.222 0.54,0.333 0.972,0.333 0.414,0 0.738,-0.111 0.972,-0.333 0.234,-0.228 0.351,-0.543 0.351,-0.945 0,-0.774 -0.441,-1.161 -1.323,-1.161 l -0.333,0.009 -0.099,0 0,-0.675 c 0.57,-0.012 0.972,-0.084 1.206,-0.216 0.24,-0.13199 0.36,-0.39299 0.36,-0.783 0,-0.33599 -0.102,-0.59999 -0.306,-0.792 -0.198,-0.19799 -0.471,-0.29699 -0.819,-0.297"
       style="text-align:end;text-anchor:end;font-family:FreeSans;-inkscape-font-specification:FreeSans"
       id="path4811" />
  </g>
  <rect
     style="fill:#d4d4d4;fill-opacity:1;stroke:none"
     id="rect4229-7"
     width="9.0705643"
     height="23.901268"
     x="184.80548"
     y="280.73709" />
  <path
     style="fill:#4d4d4d;fill-opacity:1;stroke:none"
     d="m 186.52696,288.5497 2.7729,-5.14232 2.8468,5.27936 z"
     id="path4209-0"
     inkscape:connector-curvature="0" />
  <path
     style="fill:#4d4d4d;fill-opacity:1;stroke:none"
     d="m 186.33846,295.63775 2.9302,5.43402 3.0083,-5.57884 z"
     id="path4209-6-4"
     inkscape:connector-curvature="0" />
  <rect
     style="fill:#f7f7f7;fill-opacity:1;stroke:#000000;stroke-width:1;stroke-miterlimit:4;stroke-opacity:1;stroke-dasharray:none"
     id="rect4170-0-7"
     width="191.39554"
     height="26.658384"
     x="4.0274658"
     y="249.34567" />
  <rect
     style="fill:#bdd2e6;fill-opacity:1;stroke:#a2bdd8;stroke-width:1;stroke-miterlimit:4;stroke-opacity:1;stroke-dasharray:none"
     id="rect4172-7-0"
     width="19.613941"
     height="21.598812"
     x="6.2766113"
     y="251.50107" />
  <g
     style="font-size:9px;font-style:normal;font-variant:normal;font-weight:normal;font-stretch:normal;line-height:125%;letter-spacing:0px;word-spacing:0px;fill:#000000;fill-opacity:1;stroke:none;font-family:FreeSans;-inkscape-font-specification:FreeSans"
     id="text4205-7-0">
    <path
       d="m 171.32655,259.82595 c -0.45601,0 -0.77101,0.126 -0.945,0.378 -0.16801,0.246 -0.25801,0.576 -0.27,0.99 l -0.792,0 c 0.03,-1.374 0.69599,-2.061 1.998,-2.061 0.60599,0 1.07999,0.156 1.422,0.468 0.34799,0.312 0.52199,0.741 0.522,1.287 -1e-5,0.648 -0.29701,1.089 -0.891,1.323 0.38399,0.132 0.65999,0.318 0.828,0.558 0.16799,0.234 0.25199,0.555 0.252,0.963 -1e-5,0.606 -0.19801,1.089 -0.594,1.449 -0.39001,0.36 -0.91201,0.54 -1.566,0.54 -1.30801,0 -2.01,-0.687 -2.106,-2.061 l 0.792,0 c 0.03,0.462 0.15299,0.804 0.369,1.026 0.21599,0.222 0.53999,0.333 0.972,0.333 0.41399,0 0.73799,-0.111 0.972,-0.333 0.23399,-0.228 0.35099,-0.543 0.351,-0.945 -1e-5,-0.774 -0.44101,-1.161 -1.323,-1.161 l -0.333,0.009 -0.099,0 0,-0.675 c 0.56999,-0.012 0.97199,-0.084 1.206,-0.216 0.23999,-0.132 0.35999,-0.393 0.36,-0.783 -1e-5,-0.336 -0.10201,-0.6 -0.306,-0.792 -0.19801,-0.198 -0.47101,-0.297 -0.819,-0.297"
       style="text-align:end;text-anchor:end;font-family:FreeSans;-inkscape-font-specification:FreeSans"
       id="path4814" />
    <path
       d="m 174.68931,264.57795 0.945,0 0,1.08 c 0,0.786 -0.315,1.179 -0.945,1.179 l 0,-0.342 c 0.174,-0.012 0.297,-0.075 0.369,-0.189 0.072,-0.114 0.108,-0.324 0.108,-0.63 l 0,-0.162 -0.477,0 0,-0.936"
       style="text-align:end;text-anchor:end;font-family:FreeSans;-inkscape-font-specification:FreeSans"
       id="path4816" />
    <path
       d="m 178.7334,260.96895 -1.413,0 0,-0.567 c 0.612,-0.078 1.011,-0.186 1.197,-0.324 0.186,-0.138 0.348,-0.453 0.486,-0.945 l 0.522,0 0,6.381 -0.792,0 0,-4.545"
       style="text-align:end;text-anchor:end;font-family:FreeSans;-inkscape-font-specification:FreeSans"
       id="path4818" />
  </g>
  <rect
     style="fill:#d4d4d4;fill-opacity:1;stroke:none"
     id="rect4229-7-3"
     width="9.0705643"
     height="23.901268"
     x="184.63348"
     y="250.88187" />
  <path
     style="fill:#4d4d4d;fill-opacity:1;stroke:none"
     d="m 186.35497,258.69445 2.7729,-5.14232 2.8468,5.27936 z"
     id="path4209-0-7"
     inkscape:connector-curvature="0" />
  <path
     style="fill:#4d4d4d;fill-opacity:1;stroke:none"
     d="m 186.16647,265.7825 2.9302,5.43402 3.0083,-5.57884 z"
     id="path4209-6-4-2"
     inkscape:connector-curvature="0" />
  <g
     style="font-size:40px;font-style:normal;font-weight:normal;line-height:125%;letter-spacing:0px;word-spacing:0px;fill:#000000;fill-opacity:1;stroke:none;font-family:FreeSans;-inkscape-font-specification:FreeSans"
     id="text3083-7-9">
    <path
       d="m 10.708063,265.33102 -0.8999995,0 -2.358,-6.561 0.9,0 1.9259995,5.553 1.818,-5.553 0.891,0 -2.277,6.561"
       style="font-size:9px;font-family:FreeSans;-inkscape-font-specification:FreeSans"
       id="path4682" />
    <path
       d="m 17.642845,263.22502 -3.474,0 c 0.012,0.49201 0.137999,0.88501 0.378,1.179 0.245998,0.294 0.581998,0.441 1.008,0.441 0.611997,0 1.022996,-0.315 1.233,-0.945 l 0.756,0 c -0.09601,0.51601 -0.321004,0.918 -0.675,1.206 -0.354004,0.288 -0.801003,0.432 -1.341,0.432 -0.660002,0 -1.182002,-0.222 -1.566,-0.666 -0.384001,-0.44999 -0.576001,-1.06199 -0.576,-1.836 -10e-7,-0.77399 0.194999,-1.39199 0.585,-1.854 0.395998,-0.46799 0.920998,-0.70199 1.575,-0.702 1.397996,10e-6 2.096995,0.91501 2.097,2.745 m -3.456,-0.612 2.655,0 c -4e-6,-0.40799 -0.123004,-0.74999 -0.369,-1.026 -0.246003,-0.27599 -0.558003,-0.41399 -0.936,-0.414 -0.378002,10e-6 -0.690002,0.13201 -0.936,0.396 -0.246002,0.25801 -0.384001,0.60601 -0.414,1.044"
       style="font-size:9px;font-family:FreeSans;-inkscape-font-specification:FreeSans"
       id="path4684" />
    <path
       d="m 20.722673,261.27202 c -0.504002,0.012 -0.882002,0.12901 -1.134,0.351 -0.252002,0.22201 -0.378001,0.64201 -0.378,1.26 l 0,2.448 -0.756,0 0,-4.716 0.693,0 0,0.855 c 0.215998,-0.35399 0.422998,-0.60599 0.621,-0.756 0.203998,-0.15599 0.425998,-0.23399 0.666,-0.234 0.066,10e-6 0.161997,0.009 0.288,0.027 l 0,0.765"
       style="font-size:9px;font-family:FreeSans;-inkscape-font-specification:FreeSans"
       id="path4686" />
    <path
       d="m 24.439954,262.06402 c -3e-6,-0.32999 -0.102003,-0.56699 -0.306,-0.711 -0.198003,-0.14399 -0.420003,-0.21599 -0.666,-0.216 -0.384002,10e-6 -0.693002,0.14701 -0.927,0.441 -0.234001,0.28801 -0.351001,0.67201 -0.351,1.152 l 0,2.601 -0.747,0 0,-6.561 0.747,0 0,2.493 c 0.221999,-0.28799 0.443998,-0.48899 0.666,-0.603 0.227998,-0.11999 0.509998,-0.17999 0.846,-0.18 0.455997,10e-6 0.815996,0.11701 1.08,0.351 0.269996,0.22801 0.404996,0.54001 0.405,0.936 l 0,3.564 -0.747,0 0,-3.267"
       style="font-size:9px;font-family:FreeSans;-inkscape-font-specification:FreeSans"
       id="path4688" />
    <path
       d="m 28.11336,260.48002 c 0.677997,10e-6 1.202997,0.22501 1.575,0.675 0.377996,0.44401 0.566996,1.07401 0.567,1.89 -4e-6,0.77401 -0.192004,1.38301 -0.576,1.827 -0.378003,0.444 -0.897003,0.666 -1.557,0.666 -0.672001,0 -1.197001,-0.222 -1.575,-0.666 -0.372,-0.44999 -0.558,-1.07099 -0.558,-1.863 0,-0.79199 0.189,-1.40999 0.567,-1.854 0.377999,-0.44999 0.896999,-0.67499 1.557,-0.675 m 0.009,0.693 c -0.420002,10e-6 -0.750001,0.16501 -0.99,0.495 -0.240001,0.32401 -0.360001,0.77101 -0.36,1.341 -10e-7,0.57001 0.119999,1.02001 0.36,1.35 0.239999,0.324 0.569998,0.486 0.99,0.486 0.413998,0 0.740997,-0.162 0.981,-0.486 0.245997,-0.32999 0.368997,-0.77099 0.369,-1.323 -3e-6,-0.58199 -0.120003,-1.03799 -0.36,-1.368 -0.234003,-0.32999 -0.564002,-0.49499 -0.99,-0.495"
       style="font-size:9px;font-family:FreeSans;-inkscape-font-specification:FreeSans"
       id="path4690" />
    <path
       d="m 34.811188,265.33102 -0.675,0 0,-0.657 c -0.222003,0.312 -0.453003,0.534 -0.693,0.666 -0.240002,0.132 -0.534002,0.198 -0.882,0.198 -0.456001,0 -0.822001,-0.117 -1.098,-0.351 -0.27,-0.234 -0.405,-0.546 -0.405,-0.936 l 0,-3.636 0.747,0 0,3.339 c -1e-6,0.28201 0.087,0.50701 0.261,0.675 0.173999,0.168 0.410999,0.252 0.711,0.252 0.389998,0 0.701998,-0.144 0.936,-0.432 0.233997,-0.29399 0.350997,-0.68099 0.351,-1.161 l 0,-2.673 0.747,0 0,4.716"
       style="font-size:9px;font-family:FreeSans;-inkscape-font-specification:FreeSans"
       id="path4692" />
    <path
       d="m 39.843173,258.77002 0,6.561 -0.666,0 0,-0.621 c -0.204004,0.294 -0.426004,0.504 -0.666,0.63 -0.234003,0.132 -0.513003,0.198 -0.837,0.198 -0.636002,0 -1.137001,-0.228 -1.503,-0.684 -0.366001,-0.46199 -0.549,-1.09199 -0.549,-1.89 0,-0.74999 0.182999,-1.34999 0.549,-1.8 0.371999,-0.45599 0.863998,-0.68399 1.476,-0.684 0.647997,10e-6 1.130996,0.24301 1.449,0.729 l 0,-2.439 0.747,0 m -2.07,2.412 c -0.408002,10e-6 -0.738002,0.16801 -0.99,0.504 -0.252001,0.33601 -0.378001,0.77701 -0.378,1.323 -10e-7,0.55201 0.125999,0.99601 0.378,1.332 0.251998,0.33 0.584998,0.495 0.999,0.495 0.395997,0 0.713997,-0.165 0.954,-0.495 0.239996,-0.32999 0.359996,-0.76799 0.36,-1.314 -4e-6,-0.56399 -0.120004,-1.01099 -0.36,-1.341 -0.240003,-0.33599 -0.561003,-0.50399 -0.963,-0.504"
       style="font-size:9px;font-family:FreeSans;-inkscape-font-specification:FreeSans"
       id="path4694" />
    <path
       d="m 41.729517,260.61502 0,4.716 -0.747,0 0,-4.716 0.747,0 m 0,-1.845 0,0.945 -0.756,0 0,-0.945 0.756,0"
       style="font-size:9px;font-family:FreeSans;-inkscape-font-specification:FreeSans"
       id="path4696" />
    <path
       d="m 42.923423,260.61502 0.693,0 0,0.792 c 0.209998,-0.32999 0.434998,-0.56699 0.675,-0.711 0.245998,-0.14399 0.542997,-0.21599 0.891,-0.216 0.455997,10e-6 0.818996,0.11701 1.089,0.351 0.269996,0.23401 0.404996,0.54601 0.405,0.936 l 0,3.564 -0.747,0 0,-3.267 c -4e-6,-0.28199 -0.087,-0.50699 -0.261,-0.675 -0.174003,-0.16799 -0.411003,-0.25199 -0.711,-0.252 -0.384002,10e-6 -0.693002,0.14701 -0.927,0.441 -0.234002,0.28801 -0.351001,0.67201 -0.351,1.152 l 0,2.601 -0.756,0 0,-4.716"
       style="font-size:9px;font-family:FreeSans;-inkscape-font-specification:FreeSans"
       id="path4698" />
    <path
       d="m 49.431407,265.53802 c -0.552001,0 -1.014001,-0.225 -1.386,-0.675 -0.372,-0.45599 -0.558,-1.05899 -0.558,-1.809 0,-0.76799 0.183,-1.38899 0.549,-1.863 0.371999,-0.47399 0.857999,-0.71099 1.458,-0.711 0.587997,10e-6 1.067997,0.27301 1.44,0.819 l -0.09,-0.684 0.783,0 0,3.942 c -4e-6,0.45 -0.027,0.825 -0.081,1.125 -0.054,0.306 -0.153004,0.588 -0.297,0.846 -0.144004,0.258 -0.360003,0.45 -0.648,0.576 -0.282003,0.126 -0.642003,0.189 -1.08,0.189 -0.552002,0 -0.993001,-0.126 -1.323,-0.378 -0.33,-0.252 -0.516,-0.6 -0.558,-1.044 l 0.765,0 c 0.084,0.528 0.464999,0.792 1.143,0.792 0.503997,0 0.848997,-0.144 1.035,-0.432 0.185997,-0.282 0.278997,-0.714 0.279,-1.296 l 0,-0.243 c -0.210003,0.3 -0.429003,0.516 -0.657,0.648 -0.222003,0.132 -0.480002,0.198 -0.774,0.198 m 0.144,-4.365 c -0.402002,10e-6 -0.720001,0.16501 -0.954,0.495 -0.234001,0.33001 -0.351001,0.77701 -0.351,1.341 -10e-7,0.57001 0.116999,1.02001 0.351,1.35 0.233999,0.324 0.554998,0.486 0.963,0.486 0.395997,0 0.707997,-0.159 0.936,-0.477 0.227997,-0.32399 0.341997,-0.76799 0.342,-1.332 -3e-6,-0.58799 -0.114003,-1.04399 -0.342,-1.368 -0.222003,-0.32999 -0.537003,-0.49499 -0.945,-0.495"
       style="font-size:9px;font-family:FreeSans;-inkscape-font-specification:FreeSans"
       id="path4700" />
  </g>
  <rect
     style="fill:#d4d4d4;fill-opacity:1;stroke:none"
     id="rect4229-7-3-8"
     width="9.0705643"
     height="23.901268"
     x="185.22357"
     y="220.72794" />
  <path
     style="fill:#4d4d4d;fill-opacity:1;stroke:none"
     d="m 186.94502,228.54054 2.7729,-5.14232 2.8468,5.27936 z"
     id="path4209-0-7-6"
     inkscape:connector-curvature="0" />
  <path
     style="fill:#4d4d4d;fill-opacity:1;stroke:none"
     d="m 186.75652,235.62859 2.9302,5.43402 3.0083,-5.57884 z"
     id="path4209-6-4-2-1"
     inkscape:connector-curvature="0" />
  <rect
     style="fill:#d4d4d4;fill-opacity:1;stroke:none"
     id="rect4229-7-3-8-5"
     width="9.0705643"
     height="23.901268"
     x="185.35596"
     y="190.5369" />
  <path
     style="fill:#4d4d4d;fill-opacity:1;stroke:none"
     d="m 187.0774,198.34948 2.7729,-5.14232 2.8468,5.27936 z"
     id="path4209-0-7-6-1"
     inkscape:connector-curvature="0" />
  <path
     style="fill:#4d4d4d;fill-opacity:1;stroke:none"
     d="m 186.8889,205.43754 2.9302,5.43402 3.0083,-5.57884 z"
     id="path4209-6-4-2-1-4"
     inkscape:connector-curvature="0" />
  <rect
     style="fill:#d4d4d4;fill-opacity:1;stroke:none"
     id="rect4229-7-3-8-4"
     width="9.0705643"
     height="23.901268"
     x="185.24957"
     y="160.72928" />
  <path
     style="fill:#4d4d4d;fill-opacity:1;stroke:none"
     d="m 186.97101,168.54186 2.7729,-5.14232 2.8468,5.27936 z"
     id="path4209-0-7-6-6"
     inkscape:connector-curvature="0" />
  <path
     style="fill:#4d4d4d;fill-opacity:1;stroke:none"
     d="m 186.78251,175.62991 2.9302,5.43402 3.0083,-5.57884 z"
     id="path4209-6-4-2-1-5"
     inkscape:connector-curvature="0" />
  <g
     style="font-size:9px;font-style:normal;font-variant:normal;font-weight:normal;font-stretch:normal;line-height:125%;letter-spacing:0px;word-spacing:0px;fill:#000000;fill-opacity:1;stroke:none;font-family:FreeSans;-inkscape-font-specification:FreeSans"
     id="text4205-7-0-5">
    <path
       d="m 164.67057,232.00916 c 0,-0.534 0.045,-1.005 0.135,-1.413 0.09,-0.40799 0.204,-0.72599 0.342,-0.954 0.138,-0.23399 0.303,-0.42299 0.495,-0.567 0.192,-0.14399 0.375,-0.23999 0.549,-0.288 0.18,-0.048 0.369,-0.072 0.567,-0.072 1.392,1e-5 2.08799,1.11601 2.088,3.348 -1e-5,1.05 -0.18001,1.854 -0.54,2.412 -0.354,0.552 -0.87,0.828 -1.548,0.828 -0.684,0 -1.203,-0.279 -1.557,-0.837 -0.354,-0.564 -0.531,-1.383 -0.531,-2.457 m 3.366,-0.018 c 0,-1.71599 -0.426,-2.57399 -1.278,-2.574 -0.852,1e-5 -1.278,0.86701 -1.278,2.601 0,1.752 0.42,2.628 1.26,2.628 0.444,0 0.771,-0.216 0.981,-0.648 0.21,-0.432 0.315,-1.101 0.315,-2.007"
       style="text-align:end;text-anchor:end;font-family:FreeSans;-inkscape-font-specification:FreeSans"
       id="path4821" />
    <path
       d="m 170.07633,234.16016 0.945,0 0,1.08 c 0,0.786 -0.315,1.179 -0.945,1.179 l 0,-0.342 c 0.174,-0.012 0.297,-0.075 0.369,-0.189 0.072,-0.114 0.108,-0.324 0.108,-0.63 l 0,-0.162 -0.477,0 0,-0.936"
       style="text-align:end;text-anchor:end;font-family:FreeSans;-inkscape-font-specification:FreeSans"
       id="path4823" />
    <path
       d="m 174.21943,229.40816 c -0.456,1e-5 -0.771,0.12601 -0.945,0.378 -0.168,0.24601 -0.258,0.57601 -0.27,0.99 l -0.792,0 c 0.03,-1.37399 0.696,-2.06099 1.998,-2.061 0.606,1e-5 1.08,0.15601 1.422,0.468 0.34799,0.31201 0.52199,0.74101 0.522,1.287 -1e-5,0.648 -0.29701,1.089 -0.891,1.323 0.38399,0.132 0.65999,0.318 0.828,0.558 0.16799,0.234 0.25199,0.555 0.252,0.963 -1e-5,0.606 -0.19801,1.089 -0.594,1.449 -0.39,0.36 -0.912,0.54 -1.566,0.54 -1.308,0 -2.01,-0.687 -2.106,-2.061 l 0.792,0 c 0.03,0.462 0.153,0.804 0.369,1.026 0.216,0.222 0.54,0.333 0.972,0.333 0.414,0 0.738,-0.111 0.972,-0.333 0.234,-0.228 0.35099,-0.543 0.351,-0.945 -1e-5,-0.774 -0.441,-1.161 -1.323,-1.161 l -0.333,0.009 -0.099,0 0,-0.675 c 0.57,-0.012 0.972,-0.084 1.206,-0.216 0.24,-0.132 0.36,-0.39299 0.36,-0.783 0,-0.33599 -0.102,-0.59999 -0.306,-0.792 -0.198,-0.19799 -0.471,-0.29699 -0.819,-0.297"
       style="text-align:end;text-anchor:end;font-family:FreeSans;-inkscape-font-specification:FreeSans"
       id="path4825" />
    <path
       d="m 179.22919,229.40816 c -0.456,1e-5 -0.771,0.12601 -0.945,0.378 -0.168,0.24601 -0.258,0.57601 -0.27,0.99 l -0.792,0 c 0.03,-1.37399 0.696,-2.06099 1.998,-2.061 0.606,1e-5 1.08,0.15601 1.422,0.468 0.348,0.31201 0.522,0.74101 0.522,1.287 0,0.648 -0.297,1.089 -0.891,1.323 0.384,0.132 0.66,0.318 0.828,0.558 0.168,0.234 0.252,0.555 0.252,0.963 0,0.606 -0.198,1.089 -0.594,1.449 -0.39,0.36 -0.912,0.54 -1.566,0.54 -1.308,0 -2.01,-0.687 -2.106,-2.061 l 0.792,0 c 0.03,0.462 0.153,0.804 0.369,1.026 0.216,0.222 0.54,0.333 0.972,0.333 0.414,0 0.738,-0.111 0.972,-0.333 0.234,-0.228 0.351,-0.543 0.351,-0.945 0,-0.774 -0.441,-1.161 -1.323,-1.161 l -0.333,0.009 -0.099,0 0,-0.675 c 0.57,-0.012 0.972,-0.084 1.206,-0.216 0.24,-0.132 0.36,-0.39299 0.36,-0.783 0,-0.33599 -0.102,-0.59999 -0.306,-0.792 -0.198,-0.19799 -0.471,-0.29699 -0.819,-0.297"
       style="text-align:end;text-anchor:end;font-family:FreeSans;-inkscape-font-specification:FreeSans"
       id="path4827" />
  </g>
  <g
     style="font-size:9px;font-style:normal;font-variant:normal;font-weight:normal;font-stretch:normal;line-height:125%;letter-spacing:0px;word-spacing:0px;fill:#000000;fill-opacity:1;stroke:none;font-family:FreeSans;-inkscape-font-specification:FreeSans"
     id="text4205-7-0-5-1">
    <path
       d="m 180.63111,198.75703 0,0.783 -2.655,0 -0.252,1.782 c 0.354,-0.25799 0.74699,-0.38699 1.179,-0.387 0.61199,10e-6 1.10699,0.19801 1.485,0.594 0.38399,0.39 0.57599,0.9 0.576,1.53 -1e-5,0.672 -0.20401,1.221 -0.612,1.647 -0.40801,0.426 -0.93301,0.639 -1.575,0.639 -0.24601,0 -0.47401,-0.027 -0.684,-0.081 -0.204,-0.054 -0.375,-0.117 -0.513,-0.189 -0.132,-0.078 -0.255,-0.177 -0.369,-0.297 -0.108,-0.126 -0.192,-0.234 -0.252,-0.324 -0.054,-0.096 -0.108,-0.213 -0.162,-0.351 -0.048,-0.144 -0.078,-0.243 -0.09,-0.297 -0.012,-0.054 -0.027,-0.132 -0.045,-0.234 l 0.792,0 c 0.186,0.714 0.621,1.071 1.305,1.071 0.43199,0 0.77099,-0.132 1.017,-0.396 0.25199,-0.264 0.37799,-0.624 0.378,-1.08 -1e-5,-0.474 -0.12601,-0.846 -0.378,-1.116 -0.25201,-0.276 -0.59101,-0.414 -1.017,-0.414 -0.24601,0 -0.45601,0.045 -0.63,0.135 -0.174,0.084 -0.354,0.237 -0.54,0.459 l -0.729,0 0.477,-3.474 3.294,0"
       style="text-align:end;text-anchor:end;font-family:FreeSans;-inkscape-font-specification:FreeSans"
       id="path4830" />
  </g>
  <g
     style="font-size:9px;font-style:normal;font-variant:normal;font-weight:normal;font-stretch:normal;line-height:125%;letter-spacing:0px;word-spacing:0px;fill:#000000;fill-opacity:1;stroke:none;font-family:FreeSans;-inkscape-font-specification:FreeSans"
     id="text4205-7-0-5-2">
    <path
       d="m 161.34003,170.63051 -1.413,0 0,-0.567 c 0.612,-0.078 1.011,-0.186 1.197,-0.324 0.186,-0.138 0.348,-0.453 0.486,-0.945 l 0.522,0 0,6.381 -0.792,0 0,-4.545"
       style="text-align:end;text-anchor:end;font-family:FreeSans;-inkscape-font-specification:FreeSans"
       id="path4833" />
    <path
       d="m 168.5998,171.90851 c -10e-6,0.564 -0.051,1.062 -0.153,1.494 -0.10201,0.426 -0.23101,0.762 -0.387,1.008 -0.15001,0.246 -0.333,0.447 -0.549,0.603 -0.21,0.15 -0.411,0.249 -0.603,0.297 -0.192,0.048 -0.393,0.072 -0.603,0.072 -0.486,0 -0.891,-0.147 -1.215,-0.441 -0.318,-0.294 -0.516,-0.702 -0.594,-1.224 l 0.792,0 c 0.066,0.306 0.192,0.543 0.378,0.711 0.186,0.168 0.417,0.252 0.693,0.252 0.456,0 0.804,-0.207 1.044,-0.621 0.246,-0.42 0.372,-1.02 0.378,-1.8 -0.396,0.474 -0.882,0.711 -1.458,0.711 -0.576,0 -1.047,-0.189 -1.413,-0.567 -0.366,-0.378 -0.549,-0.864 -0.549,-1.458 0,-0.624 0.195,-1.137 0.585,-1.539 0.396,-0.408 0.897,-0.612 1.503,-0.612 1.43399,0 2.15099,1.038 2.151,3.114 m -2.16,-2.421 c -0.366,0 -0.669,0.132 -0.909,0.396 -0.24,0.264 -0.36,0.597 -0.36,0.999 0,0.426 0.111,0.765 0.333,1.017 0.222,0.246 0.525,0.369 0.909,0.369 0.384,0 0.699,-0.126 0.945,-0.378 0.252,-0.252 0.378,-0.573 0.378,-0.963 0,-0.414 -0.123,-0.756 -0.369,-1.026 -0.246,-0.276 -0.555,-0.414 -0.927,-0.414"
       style="text-align:end;text-anchor:end;font-family:FreeSans;-inkscape-font-specification:FreeSans"
       id="path4835" />
    <path
       d="m 171.97156,173.64551 -2.691,0 0,-0.837 2.898,-4.014 0.585,0 0,4.14 0.945,0 0,0.711 -0.945,0 0,1.53 -0.792,0 0,-1.53 m 0,-0.711 0,-2.79 -1.998,2.79 1.998,0"
       style="text-align:end;text-anchor:end;font-family:FreeSans;-inkscape-font-specification:FreeSans"
       id="path4837" />
    <path
       d="m 174.82133,174.23951 0.945,0 0,1.08 c 0,0.786 -0.315,1.179 -0.945,1.179 l 0,-0.342 c 0.174,-0.012 0.297,-0.075 0.369,-0.189 0.072,-0.114 0.108,-0.324 0.108,-0.63 l 0,-0.162 -0.477,0 0,-0.936"
       style="text-align:end;text-anchor:end;font-family:FreeSans;-inkscape-font-specification:FreeSans"
       id="path4839" />
    <path
       d="m 180.81842,168.79451 0,0.783 -2.655,0 -0.252,1.782 c 0.354,-0.258 0.747,-0.387 1.179,-0.387 0.612,0 1.107,0.198 1.485,0.594 0.384,0.39 0.576,0.9 0.576,1.53 0,0.672 -0.204,1.221 -0.612,1.647 -0.408,0.426 -0.933,0.639 -1.575,0.639 -0.246,0 -0.474,-0.027 -0.684,-0.081 -0.204,-0.054 -0.375,-0.117 -0.513,-0.189 -0.132,-0.078 -0.255,-0.177 -0.369,-0.297 -0.108,-0.126 -0.192,-0.234 -0.252,-0.324 -0.054,-0.096 -0.108,-0.213 -0.162,-0.351 -0.048,-0.144 -0.078,-0.243 -0.09,-0.297 -0.012,-0.054 -0.027,-0.132 -0.045,-0.234 l 0.792,0 c 0.186,0.714 0.621,1.071 1.305,1.071 0.432,0 0.771,-0.132 1.017,-0.396 0.252,-0.264 0.378,-0.624 0.378,-1.08 0,-0.474 -0.126,-0.846 -0.378,-1.116 -0.252,-0.276 -0.591,-0.414 -1.017,-0.414 -0.246,0 -0.456,0.045 -0.63,0.135 -0.174,0.084 -0.354,0.237 -0.54,0.459 l -0.729,0 0.477,-3.474 3.294,0"
       style="text-align:end;text-anchor:end;font-family:FreeSans;-inkscape-font-specification:FreeSans"
       id="path4841" />
  </g>
</svg>
