<?xml version="1.0" encoding="UTF-8" standalone="no"?>
<!-- Created with Inkscape (http://www.inkscape.org/) -->
<svg xmlns:rdf="http://www.w3.org/1999/02/22-rdf-syntax-ns#" xmlns="http://www.w3.org/2000/svg" height="950" width="940" version="1.1" xmlns:cc="http://creativecommons.org/ns#" xmlns:xlink="http://www.w3.org/1999/xlink" xmlns:dc="http://purl.org/dc/elements/1.1/">
 <title>Toverstokje</title>
 <defs>
  <radialGradient id="radialGradient4416" gradientUnits="userSpaceOnUse" cy="240" cx="170" r="120">
   <stop stop-color="#ffed00" offset="0"/>
   <stop stop-color="#ff5800" stop-opacity="0.27777779" offset="0.77"/>
   <stop stop-color="#ff4500" stop-opacity="0" offset="1"/>
  </radialGradient>
  <radialGradient id="radialGradient4428" gradientUnits="userSpaceOnUse" cy="930" cx="740" gradientTransform="matrix(1,0,0,0.18348624,0,756.79159)" r="160">
   <stop stop-color="#000" offset="0"/>
   <stop stop-color="#000" stop-opacity="0" offset="1"/>
  </radialGradient>
 </defs>
 <metadata>
  <rdf:RDF>
   <cc:Work rdf:about="">
    <dc:format>image/svg+xml</dc:format>
    <dc:type rdf:resource="http://purl.org/dc/dcmitype/StillImage"/>
    <dc:title>Toverstokje</dc:title>
    <dc:date>30 juni 2015</dc:date>
    <dc:creator>
     <cc:Agent>
      <dc:title>Maxime Devos</dc:title>
     </cc:Agent>
    </dc:creator>
    <dc:rights>
     <cc:Agent>
      <dc:title>Maxime Devos</dc:title>
     </cc:Agent>
    </dc:rights>
    <dc:publisher>
     <cc:Agent>
      <dc:title>Maxime Devos</dc:title>
     </cc:Agent>
    </dc:publisher>
    <dc:subject>
     <rdf:Bag>
      <rdf:li>magie</rdf:li>
      <rdf:li>toverstok</rdf:li>
     </rdf:Bag>
    </dc:subject>
    <dc:description>een toverstok</dc:description>
    <cc:license rdf:resource=""/>
   </cc:Work>
  </rdf:RDF>
 </metadata>
 <g transform="translate(-12.121832,-104.83911)">
  <path stroke-linejoin="miter" style="baseline-shift:baseline;block-progression:tb;color:#000000;direction:ltr;text-indent:0;text-align:start;enable-background:accumulate;text-transform:none;" d="m330,380c-10,0.87-19,4.8-25,12-5.9,7.6-7.8,18-6,27,1.4,6.2,4.7,12,9.3,16l590,560c6,5.9,14,9.4,23,9.3,8.4-0.09,17-3.7,23-9.7,5.9-6.1,9.2-15,9-23-0.19-8.4-3.9-17-10-23l-580-570c-6.1-6-15-9.5-23-9.3z" fill-rule="nonzero" stroke-dashoffset="0" stroke="#000" stroke-miterlimit="4" stroke-dasharray="87.6, 7.3" stroke-width="7.30000019" fill="#696969"/>
  <path d="m290,240c0,65-52,120-120,120-65,0-120-52-120-120,0-65,52-120,120-120,65,0,120,52,120,120z" transform="matrix(1.7241379,0,0,1.7241379,-81.926857,-103.64989)" fill="url(#radialGradient4416)"/>
  <path d="m900,930c0,16-70,29-160,29-86,0-160-13-160-29s70-29,160-29c86,0,160,13,160,29z" transform="matrix(1.3669725,0,0,1.7169725,-272.0839,-588.08235)" fill="url(#radialGradient4428)"/>
 </g>
</svg>
