<?xml version="1.0" encoding="UTF-8" standalone="no"?>
<!-- Created with Inkscape (http://www.inkscape.org/) -->

<svg
   xmlns:dc="http://purl.org/dc/elements/1.1/"
   xmlns:cc="http://creativecommons.org/ns#"
   xmlns:rdf="http://www.w3.org/1999/02/22-rdf-syntax-ns#"
   xmlns:svg="http://www.w3.org/2000/svg"
   xmlns="http://www.w3.org/2000/svg"
   version="1.1"
   width="357.38388"
   height="179.43201"
   id="svg2">
  <defs
     id="defs4">
    <marker
       refX="0"
       refY="0"
       orient="auto"
       id="TriangleInS"
       style="overflow:visible">
      <path
         d="m 5.77,0 -8.65,5 0,-10 8.65,5 z"
         transform="scale(-0.2,-0.2)"
         id="path4010"
         style="fill-rule:evenodd;stroke:#000000;stroke-width:1pt" />
    </marker>
    <marker
       refX="0"
       refY="0"
       orient="auto"
       id="Tail"
       style="overflow:visible">
      <g
         transform="scale(-1.2,-1.2)"
         id="g3907">
        <path
           d="M -3.8048674,-3.9585227 0.54352094,0"
           id="path3909"
           style="fill:none;stroke:#000000;stroke-width:0.80000001;stroke-linecap:round" />
        <path
           d="M -1.2866832,-3.9585227 3.0617053,0"
           id="path3911"
           style="fill:none;stroke:#000000;stroke-width:0.80000001;stroke-linecap:round" />
        <path
           d="M 1.3053582,-3.9585227 5.6537466,0"
           id="path3913"
           style="fill:none;stroke:#000000;stroke-width:0.80000001;stroke-linecap:round" />
        <path
           d="M -3.8048674,4.1775838 0.54352094,0.21974226"
           id="path3915"
           style="fill:none;stroke:#000000;stroke-width:0.80000001;stroke-linecap:round" />
        <path
           d="M -1.2866832,4.1775838 3.0617053,0.21974226"
           id="path3917"
           style="fill:none;stroke:#000000;stroke-width:0.80000001;stroke-linecap:round" />
        <path
           d="M 1.3053582,4.1775838 5.6537466,0.21974226"
           id="path3919"
           style="fill:none;stroke:#000000;stroke-width:0.80000001;stroke-linecap:round" />
      </g>
    </marker>
    <marker
       refX="0"
       refY="0"
       orient="auto"
       id="Arrow1Mstart"
       style="overflow:visible">
      <path
         d="M 0,0 5,-5 -12.5,0 5,5 0,0 z"
         transform="matrix(0.4,0,0,0.4,4,0)"
         id="path3877"
         style="fill-rule:evenodd;stroke:#000000;stroke-width:1pt" />
    </marker>
    <marker
       refX="0"
       refY="0"
       orient="auto"
       id="StopS"
       style="overflow:visible">
      <path
         d="M 0,5.65 0,-5.65"
         transform="scale(0.2,0.2)"
         id="path4046"
         style="fill:none;stroke:#000000;stroke-width:1pt" />
    </marker>
    <marker
       refX="0"
       refY="0"
       orient="auto"
       id="DistanceEnd"
       style="overflow:visible">
      <g
         id="g2301">
        <path
           d="M 0,0 -2,0"
           id="path2316"
           style="fill:none;stroke:#ffffff;stroke-width:1.14999998;stroke-linecap:square" />
        <path
           d="M 0,0 -13,4 -9,0 -13,-4 0,0 z"
           id="path2312"
           style="fill:#000000;fill-rule:evenodd;stroke:none" />
        <path
           d="M 0,-4 0,40"
           id="path2314"
           style="fill:none;stroke:#000000;stroke-width:1;stroke-linecap:square" />
      </g>
    </marker>
    <marker
       refX="0"
       refY="0"
       orient="auto"
       id="Arrow1Lstart"
       style="overflow:visible">
      <path
         d="M 0,0 5,-5 -12.5,0 5,5 0,0 z"
         transform="matrix(0.8,0,0,0.8,10,0)"
         id="path3871"
         style="fill-rule:evenodd;stroke:#000000;stroke-width:1pt" />
    </marker>
  </defs>
  <metadata
     id="metadata7">
    <rdf:RDF>
      <cc:Work
         rdf:about="">
        <dc:format>image/svg+xml</dc:format>
        <dc:type
           rdf:resource="http://purl.org/dc/dcmitype/StillImage" />
        <dc:title></dc:title>
      </cc:Work>
    </rdf:RDF>
  </metadata>
  <g
     transform="translate(-189.26632,-530.38117)"
     id="layer1">
    <path
       d="m 296.39841,565.19036 c -0.73866,-1.35237 -1.74699,-2.54528 -2.70891,-3.74204 -2.5983,-3.17655 -5.60526,-5.97492 -8.6256,-8.73978 -3.95168,-3.57574 -8.20704,-6.7841 -12.66856,-9.69085 -4.47567,-2.84534 -9.26398,-5.12213 -14.1363,-7.19116 -4.54393,-1.95002 -9.30027,-3.17326 -14.22331,-3.54299 1.89725,0.0172 3.8033,-0.13193 5.69173,0.0516 0.83802,0.0814 -1.68191,0.12094 -2.51275,0.25733 -4.35546,0.715 -7.09641,2.30098 -10.71999,4.68639 -6.97072,5.11818 -11.97565,12.16799 -16.5635,19.37645 -5.47854,8.94874 -9.3351,18.71835 -12.82914,28.57156 -3.62223,10.38963 -6.28563,21.05316 -8.13991,31.88896 -1.01078,6.6148 -1.49477,13.31157 -1.30399,20.00332 0.11284,3.9579 0.30555,5.28699 0.68083,9.19923 0.69113,5.52457 1.73059,11.02351 3.46994,16.32159 1.0454,3.18429 1.45993,3.96286 2.77246,7.01145 2.82798,6.27655 7.05497,11.63461 11.91262,16.44345 4.766,4.51373 10.34109,7.96459 16.06084,11.11522 5.47395,2.95419 11.37071,4.85817 17.43941,6.10868 2.61314,0.36681 3.23539,0.51882 5.87134,0.6315 0.9836,0.0421 3.93636,0.0859 2.95332,0.0323 -1.70093,-0.0928 -3.45285,0.25222 -5.10818,-0.14986 -0.97389,-0.23655 1.99438,-0.20931 2.98426,-0.36604 1.00333,-0.15885 1.9945,-0.38674 2.99175,-0.58012 6.28571,-1.38186 11.97902,-4.33575 17.34838,-7.78834 3.75239,-2.5904 7.1939,-5.63007 10.12344,-9.13081 2.02348,-2.41801 2.54464,-3.33764 4.31783,-5.96336 3.5839,-5.85276 6.49968,-12.13919 8.53603,-18.6989 0.43096,-1.38826 0.78212,-2.80006 1.17318,-4.20008 2.10929,-8.33135 2.62913,-16.79723 2.2663,-25.34801 -0.48867,-6.53364 -1.93168,-12.9872 -4.49997,-19.02512 -0.48421,-1.13834 -1.04781,-2.24124 -1.57171,-3.36187 -3.17416,-6.36967 -7.87724,-11.6352 -13.18752,-16.28465 -4.06164,-3.27191 -8.64347,-5.91688 -13.72082,-7.23627 -0.95838,-0.24905 -1.93967,-0.3997 -2.9095,-0.59954 -0.99207,-0.0942 -3.96651,-0.17161 -2.97619,-0.28259 1.66687,-0.18681 3.38122,-0.24687 5.03164,0.0522 1.01361,0.18369 -2.05798,0.142 -3.07557,0.30226 -3.27854,0.51633 -6.22451,1.6938 -9.25139,2.99349 -6.18477,2.96496 -11.71036,7.05684 -17.0031,11.37359 -0.005,0.0571 -8.0856,-0.65926 -8.08053,-0.7164 l 0,0 c 5.3073,-4.37033 10.84982,-8.50623 17.02153,-11.59256 2.59778,-1.17835 3.42975,-1.66273 6.15551,-2.47929 6.52979,-1.95614 13.58187,-1.60697 20.2694,-0.75342 0.97246,0.22706 1.9574,0.40607 2.91737,0.68116 5.08555,1.45733 9.65677,4.21279 13.70461,7.57294 5.30528,4.77646 10.01375,10.14499 13.16089,16.61976 0.52154,1.13935 1.08302,2.26125 1.56462,3.41804 2.55243,6.13088 3.98219,12.67065 4.45842,19.28504 0.35215,8.68959 -0.19248,17.12298 -2.30094,25.59686 -0.3894,1.41527 -0.7391,2.84207 -1.1682,4.24581 -2.02372,6.6203 -4.91706,12.97534 -8.46725,18.91177 -1.74935,2.65002 -2.29746,3.62783 -4.29562,6.07747 -2.91347,3.57174 -6.35181,6.68452 -10.10723,9.34793 -5.36031,3.54371 -11.05698,6.58665 -17.35362,8.09709 -1.57405,0.33433 -4.35483,0.99443 -5.98164,1.06496 -6.62248,0.28711 -13.32658,0.53535 -19.8798,-0.63998 -6.07315,-1.34641 -11.96903,-3.33299 -17.43436,-6.35265 -5.73756,-3.21663 -11.32177,-6.74338 -16.07411,-11.34134 -4.85952,-4.91683 -9.07582,-10.38115 -11.87403,-16.75617 -1.2944,-3.08193 -1.71339,-3.89274 -2.74157,-7.10754 -1.71227,-5.35372 -2.72555,-10.90323 -3.3937,-16.47557 -0.9012,-9.89613 -0.95419,-19.57288 0.73206,-29.41052 1.88695,-10.87294 4.55011,-21.58083 8.15521,-32.02077 3.47907,-9.90514 7.32322,-19.72591 12.7576,-28.75068 4.5497,-7.28511 9.5024,-14.41928 16.38162,-19.72109 2.29183,-1.60722 2.93345,-2.21451 5.43404,-3.37839 5.82718,-2.71224 11.99148,-2.29793 18.34145,-2.04459 4.92876,0.50947 9.68863,1.80714 14.23201,3.80444 4.87717,2.11402 9.66649,4.44082 14.136,7.33691 4.46763,2.96567 8.73678,6.21736 12.71608,9.81777 3.06987,2.80466 6.11954,5.64747 8.78326,8.85101 1.04829,1.27694 2.21865,2.54916 2.88874,4.07588 0.002,0.0604 -8.54553,0.29837 -8.54721,0.23793 z"
       id="path3057"
       style="fill:#808000;fill-opacity:1;stroke:#292929;stroke-width:1;stroke-linecap:round;stroke-linejoin:round;stroke-miterlimit:0;stroke-opacity:0.76999996;stroke-dasharray:none;stroke-dashoffset:0;marker-start:none;marker-mid:none" />
    <path
       d="m 339.79893,612.20629 c -1.63995,3.6925 -2.97551,7.5155 -4.3169,11.32418 -2.38742,6.93191 -4.23521,14.02831 -5.98706,21.14187 -1.59742,6.51604 -2.98523,13.07975 -4.28368,19.66098 -1.17273,5.39298 -1.97581,10.82344 -1.81548,16.34653 0.28983,4.97222 2.32676,9.37078 5.0645,13.43516 3.02879,4.1988 7.17095,7.26877 11.47689,10.03627 0.77587,0.44514 1.53474,0.92133 2.32761,1.33542 1.69824,0.88694 3.19627,1.55698 5.07164,2.00163 0.93779,0.22235 3.80576,0.29354 2.85546,0.45424 -1.60059,0.27066 -3.41535,0.60949 -4.86862,-0.11381 -1.06185,-0.52848 2.34257,-0.37364 3.51386,-0.56046 8.99145,-2.34795 16.82695,-7.50126 24.36513,-12.74948 1.37577,-1.02006 2.75155,-2.04012 4.12733,-3.06018 0.005,-0.0554 7.84389,0.67606 7.83872,0.73149 l 0,0 c -1.37298,1.02785 -2.74597,2.0557 -4.11896,3.08356 -7.5055,5.30605 -15.29939,10.48867 -24.20227,13.11766 -1.16173,0.23243 -2.30172,0.64218 -3.48519,0.69729 -9.81153,0.45689 -13.85623,0.67825 -21.59529,-4.12273 -4.34856,-2.86644 -8.51015,-6.05174 -11.52867,-10.36913 -2.79761,-4.28956 -4.76865,-8.70288 -5.07032,-13.89514 -0.13413,-5.58677 0.68491,-11.07913 1.89663,-16.52894 1.33253,-6.59214 2.73593,-13.17019 4.36716,-19.69599 1.77103,-7.12436 3.61538,-14.23484 5.89841,-21.21576 1.27549,-3.81883 2.58105,-7.6284 3.96168,-11.41067 0.003,-0.0602 8.50994,0.29585 8.50742,0.35601 z"
       id="path3061"
       style="fill:#c83737;fill-opacity:1;stroke:#292929;stroke-width:1;stroke-linecap:round;stroke-linejoin:round;stroke-miterlimit:0;stroke-opacity:0.76999996;stroke-dasharray:none;stroke-dashoffset:0;marker-start:none;marker-mid:none" />
    <path
       d="m 339.91767,590.44912 c -0.51493,-0.62976 -0.94786,-1.3056 -1.32464,-2.02512 -0.5431,-1.06794 -0.85103,-2.23102 -1.14234,-3.3869 -0.37988,-1.41708 -0.55062,-2.84525 -0.42196,-4.30569 0.19668,-1.51833 0.87353,-2.85918 1.6901,-4.1287 0.79217,-1.20407 1.79481,-2.23427 2.87478,-3.17903 1.05464,-0.9096 2.27506,-1.58228 3.51595,-2.19836 1.18487,-0.56072 2.4068,-1.04072 3.65835,-1.4295 3.82092,-0.88856 7.93897,-0.85849 11.78767,-0.2753 1.26364,0.27648 2.23854,0.99455 3.13834,1.88613 1.13515,1.13345 1.95496,2.49636 2.67156,3.91797 0.7856,1.65239 1.33642,3.39976 1.85575,5.14979 0.53531,1.82663 0.97809,3.65909 1.05498,5.56421 -0.0842,2.26309 -0.99352,4.35201 -1.88138,6.39744 -0.84501,1.94172 -1.9188,3.76412 -3.15958,5.47618 -1.16172,1.6074 -2.66402,2.87546 -4.2821,3.99658 -1.78902,1.23863 -3.78742,1.97546 -5.91078,2.37451 -6.28012,0.73113 -10.46108,0.8308 -15.6936,-1.61417 -2.69728,-1.41592 -5.02855,-3.37966 -7.2448,-5.44441 -1.97973,-1.84173 -3.68228,-3.93706 -5.21223,-6.15886 -1.43178,-2.19491 -2.57973,-4.54531 -3.37199,-7.0408 -0.73773,-2.56545 -0.64199,-5.17194 -0.17037,-7.76688 0.56123,-2.65365 1.69016,-5.11449 2.98415,-7.47976 1.30243,-2.3087 3.00457,-4.33595 4.80448,-6.26625 1.71578,-1.79971 3.65765,-3.35026 5.66354,-4.80972 1.86731,-1.36713 3.8809,-2.50665 5.94674,-3.54107 2.17162,-1.07607 4.47869,-1.81639 6.82794,-2.38556 5.33111,-0.87033 10.84341,-0.85771 16.19637,-0.13248 2.47852,0.38663 4.89536,1.07866 7.26919,1.87651 2.07581,0.67863 3.95166,1.77116 5.73133,3.0151 1.5974,1.17382 2.96221,2.60043 4.18161,4.15423 1.17937,1.5731 2.03578,3.34633 2.82879,5.13576 0.71822,1.67523 1.34552,3.38695 1.91613,5.11741 0.49694,1.61384 0.92019,3.24992 1.28991,4.89727 0.38825,1.58858 0.53031,3.21163 0.57268,4.84119 0.0527,1.80337 -0.31211,3.56244 -0.71011,5.30896 -0.44135,1.8713 -1.04502,3.69972 -1.70222,5.50491 -0.6162,1.76471 -1.3708,3.4734 -2.19514,5.1493 -0.94566,1.86129 -2.1828,3.53695 -3.51731,5.13295 -1.47445,1.74699 -3.198,3.24724 -4.97269,4.67735 -1.70908,1.32581 -3.51139,2.52204 -5.36119,3.64049 -1.69822,1.00444 -3.49167,1.82806 -5.31687,2.57053 -1.826,0.73096 -3.71885,1.26618 -5.62292,1.7481 -4.77161,1.22416 -9.65631,0.71826 -14.55888,0.69724 -2.22441,-0.1243 -4.37539,-0.70823 -6.47274,-1.42459 -2.29848,-0.82249 -4.40923,-2.05675 -6.51285,-3.27527 -2.06728,-1.16607 -4.01278,-2.52323 -5.91599,-3.93659 -1.68578,-1.27072 -3.25916,-2.67936 -4.80491,-4.11449 -1.37288,-1.24581 -2.5248,-2.6784 -3.51733,-4.2375 -0.98959,-1.64689 -1.72079,-3.42706 -2.37888,-5.22668 -0.70881,-1.94804 -1.1735,-3.97128 -1.59835,-5.99649 -0.46146,-2.25754 -0.77812,-4.54039 -1.07774,-6.82388 -0.30324,-2.18292 -0.49647,-4.37889 -0.59546,-6.5801 -0.0912,-2.06424 0.003,-4.13057 0.16749,-6.1884 0.1475,-2.00596 0.47163,-3.99309 0.89045,-5.95866 0.40298,-1.92754 1.08265,-3.76116 1.9698,-5.51351 0.98842,-1.88127 2.35807,-3.49595 3.8615,-4.98032 1.52189,-1.49179 3.23463,-2.75444 5.01125,-3.92163 1.83506,-1.19128 3.76912,-2.21338 5.71453,-3.20929 2.16855,-1.08888 4.43067,-1.97224 6.69537,-2.83675 2.19318,-0.85037 4.43221,-1.57248 6.68424,-2.24845 2.11836,-0.63346 4.27534,-1.1194 6.44113,-1.55774 2.11165,-0.41847 4.24011,-0.74343 6.3705,-1.04921 4.76393,-0.71391 9.61456,-0.77037 14.41764,-0.39033 1.95321,0.18782 3.8582,0.6625 5.71034,1.2959 1.82793,0.65132 3.54875,1.53228 5.20081,2.54148 1.61796,0.99442 3.06765,2.21197 4.43464,3.52257 1.65246,1.64086 2.91198,3.60377 4.1421,5.5656 1.63073,2.61129 2.97169,5.3825 4.1945,8.20309 0.23406,0.56194 0.46811,1.12387 0.70216,1.68581 0.002,0.0588 -8.31501,0.3905 -8.31736,0.33169 l 0,0 c -0.23716,-0.557 -0.47432,-1.114 -0.71148,-1.671 -1.24907,-2.77624 -2.60355,-5.50755 -4.2497,-8.07388 -1.2304,-1.90323 -2.50009,-3.79978 -4.17271,-5.35105 -1.36814,-1.24828 -2.81713,-2.40264 -4.41974,-3.34055 -1.64561,-0.94864 -3.36424,-1.76627 -5.17474,-2.35283 -1.85125,-0.55364 -3.74202,-0.98182 -5.67823,-1.08501 -3.23898,-0.1153 -2.75285,-0.085 6.33411,-0.0622 0.33737,8.4e-4 -0.67451,0.0213 -1.01119,0.0427 -0.79315,0.0505 -1.2382,0.11106 -2.02844,0.20923 -0.34292,0.0426 -0.68554,0.0875 -1.02831,0.13125 -2.13054,0.29282 -4.25937,0.60393 -6.37321,1.00196 -2.16151,0.41468 -4.31512,0.8752 -6.43248,1.48063 -2.25373,0.6528 -4.49673,1.3483 -6.69095,2.18255 -2.24929,0.85268 -4.50398,1.70046 -6.67215,2.74779 -1.93115,0.98174 -3.86311,1.96668 -5.69556,3.12675 -1.76777,1.11252 -3.48047,2.31444 -4.99671,3.7597 -1.4902,1.38667 -2.84678,2.91017 -3.83341,4.70477 -0.88837,1.67364 -1.56282,3.43188 -1.96029,5.29006 -0.42338,1.92701 -0.74915,3.87718 -0.89692,5.84631 -0.16259,2.02334 -0.25672,4.05409 -0.16854,6.08396 0.0932,2.17673 0.27963,4.34847 0.57674,6.50732 0.29692,2.26232 0.62089,4.52268 1.08815,6.75721 0.42774,1.98563 0.9002,3.96656 1.6117,5.87307 0.65505,1.73949 1.37379,3.4646 2.37784,5.03673 1.00054,1.48204 2.15947,2.83492 3.49315,4.03121 1.53527,1.40654 3.09237,2.79211 4.77412,4.0239 1.89665,1.38472 3.84519,2.69549 5.89593,3.84394 2.08575,1.19553 4.20515,2.35982 6.50398,3.09903 2.09833,0.64324 4.24139,1.14874 6.44825,1.18823 -14.59544,0.0544 -5.46396,0.3708 -2.12837,-0.52427 1.89407,-0.44926 3.7782,-0.94917 5.6028,-1.63445 1.81943,-0.70076 3.60857,-1.47996 5.31032,-2.43685 1.85162,-1.07699 3.64845,-2.24139 5.36435,-3.52561 1.76305,-1.37686 3.48432,-2.8173 4.95408,-4.51305 1.31822,-1.52906 2.54529,-3.13386 3.48402,-4.92983 0.8252,-1.64387 1.58384,-3.32034 2.19355,-5.05765 0.65766,-1.76771 1.25802,-3.56086 1.69978,-5.39594 0.38061,-1.67828 0.74753,-3.3643 0.68585,-5.09835 -0.0405,-1.57436 -0.18433,-3.14103 -0.56613,-4.67419 -0.37202,-1.61925 -0.77611,-3.23283 -1.28278,-4.8159 -0.56553,-1.70155 -1.17891,-3.38828 -1.89687,-5.03221 -0.78197,-1.72505 -1.63484,-3.4298 -2.82146,-4.91881 -1.21786,-1.46977 -2.56644,-2.82421 -4.14846,-3.9067 -1.77199,-1.16889 -3.64861,-2.15513 -5.68614,-2.78241 -2.36069,-0.75126 -4.76099,-1.40723 -7.22492,-1.71524 -2.98183,-0.30818 -8.7122,-0.22108 4.30769,-0.24248 0.43783,-7.2e-4 -0.87581,0.007 -1.31322,0.0262 -0.43247,0.0188 -0.86506,0.0433 -1.29567,0.0874 -0.42504,0.0436 -0.84647,0.11718 -1.26971,0.17577 -2.33252,0.49448 -4.62092,1.17881 -6.78467,2.19518 -2.06311,0.98247 -4.07667,2.07277 -5.94261,3.39885 -1.99501,1.41522 -3.94097,2.90155 -5.66111,4.6498 -1.78939,1.86228 -3.48702,3.81724 -4.79817,6.05548 -1.28176,2.2745 -2.40498,4.64251 -2.96984,7.20835 -0.4635,2.45709 -0.5612,4.92487 0.17208,7.3502 0.79733,2.41187 1.93636,4.68459 3.35856,6.79243 1.52693,2.15781 3.22064,4.19033 5.17451,5.97931 2.1952,2.00103 4.51537,3.8964 7.22202,5.17049 1.26418,0.52771 2.48801,1.00662 3.84908,1.22616 0.39927,0.0644 1.61053,0.11739 1.2063,0.13005 -2.00511,0.0628 -10.40897,0.1115 -6.01819,0.0296 2.0941,-0.23296 4.06673,-0.85356 5.84764,-2.00888 1.5979,-1.02505 3.10093,-2.18567 4.26091,-3.70916 1.25599,-1.63517 2.31936,-3.40082 3.16494,-5.28409 0.85231,-1.9208 1.76011,-3.87912 1.85333,-6.01306 -0.0839,-1.8337 -0.54338,-3.59764 -1.05695,-5.35532 -0.51122,-1.70073 -1.05723,-3.39952 -1.86014,-4.98932 -0.71529,-1.33073 -1.53626,-2.60157 -2.67378,-3.61637 -0.90481,-0.74163 -1.90182,-1.27102 -3.09301,-1.34812 -3.15891,-0.15255 -0.66075,-0.0228 7.30267,-0.0425 0.1875,-4.6e-4 -0.375,-0.003 -0.56249,-0.002 -0.48934,0.002 -0.63595,-0.005 -1.12336,0.0637 -0.1949,0.0273 -0.38748,0.0692 -0.58121,0.10385 -1.25185,0.32928 -2.46791,0.76403 -3.65189,1.28931 -1.21979,0.55576 -2.43095,1.15678 -3.49342,1.98403 -1.07021,0.86103 -2.07039,1.80679 -2.86418,2.93618 -0.77836,1.13677 -1.47064,2.32267 -1.67331,3.71137 -0.13423,1.36355 0.063,2.69392 0.42749,4.01292 0.28805,1.08967 0.60046,2.18325 1.15736,3.17154 0.37772,0.64456 0.80549,1.2711 1.3542,1.78379 0.005,0.0603 -8.52002,0.7312 -8.52476,0.67092 z"
       id="path3065"
       style="fill:#ff7f2a;fill-opacity:1;stroke:#292929;stroke-width:1;stroke-linecap:round;stroke-linejoin:round;stroke-miterlimit:0;stroke-opacity:0.76999996;stroke-dasharray:none;stroke-dashoffset:0;marker-start:none;marker-mid:none" />
    <path
       d="m 347.96209,690.26497 c -15.55574,-0.18674 -9.13663,0.81203 -6.28564,-0.46486 0.86562,-0.38768 1.19801,-0.63343 2.03613,-1.14788 3.26023,-2.21427 6.16107,-4.89794 9.02658,-7.58916 3.8174,-3.66694 7.31225,-7.65147 10.77319,-11.65117 3.75818,-4.3644 7.23914,-8.95443 10.64202,-13.5978 3.13364,-4.30065 6.0933,-8.72392 9.02121,-13.16599 2.45435,-3.75454 4.75104,-7.60799 7.05588,-11.45505 1.72091,-2.86956 3.39334,-5.76784 5.03008,-8.68612 1.14073,-2.03751 2.2764,-4.08175 3.55853,-6.03465 2.74723,-3.93951 4.83631,-2.03091 10.93524,-1.93796 0.90257,0.885 1.31792,2.11816 1.74647,3.27809 0.61749,1.81962 1.05689,3.69341 1.44318,5.57372 0.53171,2.69017 0.81366,5.41963 1.07305,8.14675 0.31924,3.50298 0.53339,7.01436 0.73179,10.52589 0.17604,3.6979 0.37896,7.39402 0.5927,11.0899 0.20605,3.70305 0.46415,7.40302 0.69965,11.10431 0.21903,3.36112 0.39622,6.72469 0.56191,10.08879 0.16819,2.91912 0.38504,5.83513 0.58538,8.75215 0.15265,2.20149 0.30274,4.40316 0.44283,6.60549 0.0996,0.82967 0.034,1.70332 0.24318,2.52022 0.0383,0.1494 0.0392,0.38371 0.1885,0.42254 0.13188,0.0343 0.41175,-0.29266 0.27579,-0.30175 -2.66639,-0.17843 -5.34275,-0.14404 -8.01413,-0.21606 2.36653,-3.14844 3.89555,-6.88273 5.51533,-10.45308 2.90422,-6.59222 5.65762,-13.24864 8.37548,-19.91931 3.04038,-7.6054 5.91959,-15.27387 8.81804,-22.93412 2.44561,-6.48742 4.86739,-12.9836 7.26045,-19.49059 1.66286,-4.37704 3.09157,-8.84859 5.01502,-13.12161 2.52027,-4.56271 3.83597,-3.18249 11.06648,-2.41366 0.23755,0.0253 0.95009,1.54229 1.21495,2.06608 1.86282,4.9652 2.92274,10.18471 4.2127,15.31692 1.96976,8.20613 4.5552,16.23166 7.37676,24.17822 3.00686,8.49428 6.71021,16.70551 11.11121,24.56287 0.003,0.0564 -7.97385,0.46126 -7.97671,0.40485 l 0,0 c -4.36335,-7.91787 -8.0531,-16.17236 -11.08004,-24.6957 -2.8499,-7.97387 -5.46455,-16.0257 -7.51799,-24.24649 -1.33521,-5.06947 -2.43387,-10.25662 -4.51494,-15.08687 -0.21373,-0.33246 -0.38264,-0.69846 -0.64119,-0.99739 -0.16206,-0.18737 -0.84697,-0.41453 -0.60036,-0.43805 2.58792,-0.24686 5.1967,-0.1655 7.79505,-0.24824 -0.22105,0.0404 -0.46931,0.008 -0.66315,0.12132 -0.63942,0.37503 -1.09472,1.28047 -1.45494,1.84142 -2.05514,4.21181 -3.48131,8.68922 -5.18756,13.0471 -2.45019,6.50271 -4.91962,12.99801 -7.39577,19.49087 -2.91605,7.65969 -5.80371,15.33064 -8.8189,22.95207 -2.69032,6.67016 -5.39636,13.33399 -8.21032,19.95323 -1.60419,3.67487 -3.1978,7.3737 -5.23966,10.83253 -8.94561,0.56868 -9.27063,2.94728 -9.59236,-3.09599 -0.12809,-2.20078 -0.25824,-4.40143 -0.39622,-6.60161 -0.18429,-2.92227 -0.37769,-5.844 -0.54465,-8.76733 -0.15688,-3.36017 -0.3323,-6.71946 -0.53497,-10.07721 -0.22414,-3.70315 -0.48592,-7.40389 -0.69635,-11.10783 -0.21395,-3.69598 -0.40852,-7.3927 -0.59287,-11.09026 -0.20424,-3.50045 -0.42487,-7.00081 -0.76627,-10.49105 -0.27828,-2.69749 -0.58509,-5.39643 -1.13726,-8.05422 -0.39792,-1.83695 -0.84231,-3.66972 -1.48703,-5.43802 -0.34898,-0.87185 -0.69688,-2.21253 -1.72951,-2.46058 2.69613,-0.0134 5.39258,0.004 8.08838,-0.0401 0.124,-0.002 -0.23814,-0.0872 -0.36214,-0.0852 -0.80026,0.0124 -1.33254,0.92508 -1.78308,1.43931 -1.34161,1.90234 -2.47,3.94328 -3.6269,5.96071 -1.66339,2.92463 -3.36002,5.8304 -5.10797,8.70543 -2.33437,3.85347 -4.66154,7.71264 -7.12528,11.48549 -2.94694,4.45246 -5.92498,8.88651 -9.06947,13.20282 -3.4095,4.65914 -6.89428,9.26698 -10.64116,13.66251 -3.44723,4.02308 -6.93636,8.02284 -10.71695,11.73895 -2.84286,2.7196 -5.71641,5.42514 -8.89698,7.75264 -4.30504,2.96622 -5.99476,2.58021 -12.54763,2.11712 -0.009,-0.0597 8.43376,-1.39698 8.44321,-1.33728 z"
       id="path3067"
       style="fill:#44aa00;fill-opacity:1;stroke:#292929;stroke-width:1;stroke-linecap:round;stroke-linejoin:round;stroke-miterlimit:0;stroke-opacity:0.76999996;stroke-dasharray:none;stroke-dashoffset:0;marker-start:none;marker-mid:none" />
    <path
       d="m 494.92522,707.04378 c -1.19604,-5.95668 -1.84561,-12.00182 -2.53093,-18.03278 -1.34073,-12.21112 -2.22173,-24.46587 -3.06258,-36.71953 -0.97529,-12.15418 -0.99554,-24.33349 -0.28471,-36.49712 0.50562,-6.52612 1.34951,-13.04047 2.8968,-19.40793 0.90483,-3.72361 1.22927,-4.48697 2.4031,-8.08061 2.26457,-6.67215 5.76433,-12.73532 10.09563,-18.25577 2.81692,-3.23386 6.05625,-6.24671 10.01247,-8.02787 0.66991,-0.30161 1.3743,-0.51988 2.06145,-0.77982 0.68317,-0.15616 1.3563,-0.36567 2.0495,-0.46849 0.67034,-0.0994 1.35087,-0.14764 2.02845,-0.13637 5.08781,0.0846 8.17113,-0.77518 12.1265,1.04641 1.7697,0.81501 2.03094,1.1862 3.55334,2.41621 3.96312,3.82686 6.29916,8.86137 8.19778,13.94634 1.63774,5.0858 2.09762,10.46366 1.2877,15.75121 -0.16198,1.05751 -0.42601,2.09684 -0.63902,3.14527 -1.44382,5.33202 -4.3733,10.04284 -8.45032,13.76772 -0.87298,0.79758 -1.82754,1.50103 -2.74131,2.25154 -5.16494,3.75138 -11.16094,6.01749 -17.53068,6.54872 -1.35262,0.1128 -2.71344,0.0804 -4.07016,0.12057 -6.84022,-0.23778 -10.62115,0.47935 -16.35439,-1.49198 -1.45685,-0.50093 -2.82381,-1.23267 -4.23571,-1.849 -0.007,-0.0558 7.88498,-0.9858 7.89156,-0.93 l 0,0 c 1.41633,0.57187 2.79165,1.25828 4.24901,1.7156 4.28981,1.34614 6.74954,0.71841 0.52567,1.3161 1.34731,-0.0122 2.6972,0.0477 4.04193,-0.0366 6.29587,-0.39475 12.26387,-2.4858 17.42047,-6.11318 0.90561,-0.72202 1.85073,-1.3971 2.71683,-2.16606 4.02137,-3.57035 6.94855,-8.11597 8.39815,-13.29871 0.21316,-1.02179 0.47757,-2.03421 0.63948,-3.06536 0.81089,-5.16422 0.34186,-10.41612 -1.30514,-15.37008 -1.91078,-4.95965 -4.24979,-9.88231 -8.2834,-13.48432 -1.50803,-1.09307 -1.81181,-1.46394 -3.54376,-2.13878 -0.61837,-0.24093 -2.56156,-0.44096 -1.90941,-0.56395 2.03691,-0.38411 4.14425,-0.12613 6.21349,-0.2477 0.67135,-0.0394 -1.34753,-0.0567 -2.01755,10e-4 -0.68983,0.0596 -1.36499,0.2334 -2.04748,0.3501 -0.68804,0.22538 -1.39241,0.40599 -2.06413,0.67615 -3.97906,1.60033 -7.23637,4.53104 -10.07902,7.6645 -4.38638,5.40019 -7.92435,11.36707 -10.22762,17.96313 -1.19758,3.55311 -1.52861,4.31233 -2.45902,7.99787 -1.59551,6.32013 -2.48533,12.79355 -3.03059,19.282 -0.78376,12.12576 -0.83495,24.27359 0.14167,36.39585 0.85954,12.24437 1.77729,24.49092 3.27941,36.67645 0.7906,6.00993 1.53141,12.06312 3.14621,17.92056 10e-4,0.0602 -8.5082,0.26868 -8.50967,0.20851 z"
       id="path3069"
       style="fill:#0044aa;fill-opacity:1;stroke:#292929;stroke-width:1;stroke-linecap:round;stroke-linejoin:round;stroke-miterlimit:0;stroke-opacity:0.76999996;stroke-dasharray:none;stroke-dashoffset:0;marker-start:none;marker-mid:none" />
  </g>
</svg>
